<svg width="289" height="115" viewBox="0 0 289 115" fill="none" xmlns="http://www.w3.org/2000/svg">
<path d="M215.003 52.3956C214.653 61.1307 216.285 75.1172 218.593 80.3418C233.287 81.6777 259.616 83.1092 260.592 79.0669C261.812 74.014 252.545 53.6281 251.848 50.8403C251.151 48.0525 262.011 43.34 265.496 34.9766C268.284 28.2859 262.567 14.8893 259.372 11.8111C260.186 13.8439 261.324 19.6169 259.372 26.4471C257.421 33.2772 247.757 35.217 243.168 35.3332H222.957C218.978 35.3332 218.016 36.13 214.172 37.86C209.653 39.8937 205.616 46.056 202.446 52.8536C200.522 56.9799 205.22 63.4006 208.925 66.6938C210.48 68.0756 211.86 68.9068 212.502 68.7868C213.403 69.0005 210.03 59.505 209.751 57.2748C209.565 55.7875 211.29 53.5258 212.993 51.5466C213.649 50.7852 215.043 51.3917 215.003 52.3956Z" fill="#2584A3"/>
<path fill-rule="evenodd" clip-rule="evenodd" d="M231.437 37.3882C240.366 36.7907 247.12 29.0676 246.523 20.1383C245.925 11.209 238.202 4.45475 229.273 5.05228C220.344 5.64982 213.589 13.3729 214.187 22.3022C214.785 31.2315 222.508 37.9857 231.437 37.3882ZM220.708 26.5187C222.438 28.2487 239.437 31.2939 241.874 22.7016C242.884 26.1996 240.122 32.8488 231.609 32.8488C223.938 32.8488 221.477 28.0565 220.708 26.5187Z" fill="#2584A3"/>
<rect x="252.04" y="6.29773" width="20.6153" height="12.052" rx="4" transform="rotate(-12.8253 252.04 6.29773)" fill="#EC502B"/>
<path d="M37.1315 23.9053C30.8134 31.791 28.5574 40.3701 30.9101 42.1285C31.9185 42.8821 34.2097 44.1347 36.6294 45.4576C40.4375 47.5395 44.5635 49.7952 44.5065 50.5529C44.4133 51.7919 42.9469 77.2509 43.1933 80.9329C43.3973 83.9814 76.7256 82.278 88.4527 81.0841C89.7355 76.3212 88.4836 59.8981 87.6431 48.871C87.3925 45.5839 87.1785 42.7762 87.079 40.8998C86.593 38.9148 86.3746 37.0285 86.1674 35.2382C85.7523 31.6515 85.3817 28.45 82.9922 25.6106C79.6247 21.6091 68.8074 17.1669 63.8197 15.4459C66.1866 17.9911 70.3732 22.743 72.8698 26.2879C71.9664 26.5091 70.953 26.7476 69.8714 27.0023C63.05 28.608 53.5129 30.853 51.7378 33.404C49.1672 37.0984 40.6229 36.0938 38.8567 34.552C37.8271 33.6532 38.0836 28.7499 38.6711 24.6345C38.7981 23.7449 37.6934 23.2039 37.1315 23.9053Z" fill="#2584A3"/>
<path d="M72.0023 16.6595C72.6049 25.665 65.7931 33.4539 56.7876 34.0566C47.7821 34.6592 39.9932 27.8473 39.3905 18.8418C38.7879 9.83634 45.5998 2.04741 54.6053 1.44478C63.6108 0.842146 71.3997 7.65401 72.0023 16.6595Z" fill="#2584A3"/>
<path d="M73.4344 40.6918C73.948 37.8395 77.2076 31.2812 75.4301 28.4061C73.6527 25.5311 61.2759 19.2079 64.1595 17.4334C64.3731 17.3019 64.9468 17.23 65.315 17.2741C69.5989 17.7872 81.1295 21.3843 83.5417 25.926C86.1613 30.8581 86.7121 36.457 87.0164 38.3739" stroke="white" stroke-width="0.88726"/>
<line x1="60.281" y1="1.51523" x2="60.281" y2="16.979" stroke="white" stroke-width="1.33089"/>
<line x1="62.9428" y1="2.90875e-08" x2="62.9428" y2="14.0579" stroke="white" stroke-width="1.33089"/>
<line x1="65.6046" y1="2.92099" x2="65.6046" y2="12.7615" stroke="white" stroke-width="1.33089"/>
<path d="M201.458 104.766H195.62V103.352H201.458V104.766ZM195.578 107.132C195.606 106.768 195.62 106.432 195.62 106.096V105.662H201.458V107.132H195.578ZM204.118 100.79V99.8096H196.978C197.188 99.3056 197.37 98.7736 197.524 98.2556L196.488 98.0036C196.32 98.6056 196.11 99.2076 195.872 99.8096H191.938V100.79H195.424C194.556 102.596 193.296 104.248 191.658 105.354C191.854 105.564 192.176 105.942 192.316 106.166C193.17 105.564 193.926 104.822 194.584 104.024V106.068C194.584 107.398 194.458 108.938 193.296 110.058C193.52 110.212 193.898 110.646 194.024 110.87C194.85 110.1 195.27 109.05 195.452 108.028H201.458V109.484C201.458 109.694 201.374 109.764 201.136 109.778C200.884 109.778 200.044 109.792 199.106 109.75C199.26 110.044 199.414 110.464 199.456 110.772C200.646 110.772 201.43 110.758 201.892 110.59C202.34 110.422 202.48 110.114 202.48 109.484V102.414H195.704C196.012 101.896 196.292 101.336 196.558 100.79H204.118ZM208.836 98.0036H207.884V100.692H205.742V101.672H207.772C207.338 103.576 206.456 105.788 205.546 106.964C205.728 107.202 205.994 107.664 206.106 107.958C206.764 107.034 207.408 105.508 207.884 103.94V110.786H208.836V103.604C209.214 104.29 209.648 105.13 209.83 105.578L210.46 104.836C210.222 104.43 209.2 102.82 208.836 102.33V101.672H210.474V100.692H208.836V98.0036ZM212.042 102.092H216.228V103.828H212.042V102.092ZM216.228 99.5436V101.224H212.042V99.5436H216.228ZM217.362 105.186C216.802 105.704 215.906 106.362 215.178 106.824C214.828 106.194 214.534 105.494 214.324 104.738H217.236V98.6196H211.02V109.092C211.02 109.624 210.81 109.82 210.628 109.918C210.768 110.128 210.992 110.562 211.062 110.8C211.328 110.618 211.748 110.478 214.632 109.694C214.604 109.47 214.576 109.078 214.59 108.784L212.042 109.4V104.738H213.428C214.156 107.538 215.5 109.666 217.754 110.688C217.922 110.422 218.23 110.002 218.468 109.806C217.306 109.344 216.368 108.56 215.64 107.566C216.424 107.118 217.348 106.488 218.062 105.914L217.362 105.186ZM223.802 104.864L223.676 103.898L222.29 104.332V101.784H223.564V100.818H222.29V98.0176H221.338V100.818H219.63V101.784H221.338V104.64C220.624 104.864 219.966 105.046 219.434 105.2L219.7 106.208C220.204 106.054 220.75 105.858 221.338 105.662V109.61C221.338 109.806 221.268 109.862 221.1 109.862C220.946 109.862 220.386 109.862 219.784 109.848C219.924 110.128 220.05 110.548 220.092 110.8C220.974 110.814 221.492 110.772 221.814 110.618C222.164 110.436 222.29 110.17 222.29 109.61V105.354L223.802 104.864ZM224.992 101.21H227.134V102.078L225.314 102.246L225.412 103.044L227.134 102.876C227.148 103.632 227.358 103.968 228.24 103.968H230.382C230.76 103.968 231.194 103.954 231.39 103.898C231.362 103.702 231.334 103.45 231.32 103.226C231.096 103.282 230.592 103.282 230.326 103.282H228.38C228.058 103.282 228.002 103.184 228.002 102.848V102.666L230.34 102.442L230.27 101.798L228.002 102.008V101.21H231.152C231.04 101.602 230.9 102.022 230.774 102.302L231.572 102.484C231.81 102.008 232.062 101.224 232.244 100.552L231.614 100.398L231.446 100.426H228.24V99.6556H231.516V98.8856H228.24V98.0316H227.232V100.426H224.082V104.374C224.082 106.194 223.942 108.56 222.696 110.254C222.92 110.352 223.298 110.632 223.466 110.786C224.796 109.008 224.992 106.334 224.992 104.374V101.21ZM231.572 105.662C230.942 106.054 229.892 106.586 229.024 106.964C228.828 106.586 228.562 106.25 228.226 105.942C228.576 105.718 228.912 105.494 229.164 105.256H232.216V104.528H225.384V105.256H228.184C227.4 105.788 226.224 106.264 225.216 106.544C225.3 106.684 225.468 106.964 225.552 107.104C226.21 106.922 226.938 106.628 227.596 106.292C227.736 106.418 227.848 106.558 227.96 106.698C227.218 107.258 225.972 107.818 224.978 108.07C225.132 108.21 225.3 108.476 225.384 108.658C226.35 108.322 227.498 107.734 228.282 107.174C228.366 107.342 228.45 107.51 228.492 107.664C227.666 108.49 226.056 109.386 224.782 109.778C224.95 109.932 225.132 110.226 225.23 110.408C226.364 109.946 227.736 109.134 228.674 108.35C228.786 109.05 228.646 109.666 228.436 109.876C228.296 110.058 228.114 110.072 227.89 110.072C227.694 110.072 227.4 110.058 227.078 110.03C227.218 110.24 227.288 110.576 227.302 110.786C227.582 110.8 227.834 110.814 228.044 110.814C228.478 110.814 228.744 110.716 229.038 110.45C229.528 110.002 229.724 108.728 229.262 107.51C229.472 107.426 229.696 107.342 229.92 107.258C230.284 108.588 230.97 109.806 231.936 110.422C232.062 110.198 232.342 109.89 232.538 109.736C231.586 109.246 230.914 108.168 230.564 106.978C231.138 106.726 231.698 106.432 232.174 106.166L231.572 105.662ZM238.152 104.108H235.212V101.182H238.152V104.108ZM235.212 108.392V105.032H238.152V108.392H235.212ZM236.388 97.9756C236.29 98.6336 236.038 99.5716 235.828 100.244H234.26V110.436H235.212V109.33H239.104V100.244H236.78C237.018 99.6416 237.27 98.8716 237.508 98.1856L236.388 97.9756ZM245.95 100.202H241.764C242.002 99.5436 242.198 98.8716 242.366 98.1856L241.372 97.9476C240.924 99.8656 240.168 101.798 239.23 103.03C239.454 103.17 239.902 103.45 240.084 103.618C240.574 102.96 241.008 102.106 241.4 101.168H244.956C244.774 106.74 244.564 108.868 244.102 109.358C243.962 109.54 243.808 109.568 243.528 109.568C243.206 109.568 242.366 109.568 241.456 109.484C241.652 109.778 241.778 110.198 241.806 110.506C242.59 110.548 243.388 110.576 243.878 110.52C244.354 110.478 244.676 110.352 244.984 109.96C245.544 109.274 245.726 107.118 245.95 100.734V100.202ZM243.738 106.502C243.29 105.676 242.324 104.332 241.54 103.338L240.728 103.814C241.498 104.822 242.436 106.208 242.856 107.048L243.738 106.502ZM254.602 99.4876H257.038V101.728C257.038 102.764 257.248 103.17 258.228 103.17H259.404C259.684 103.17 259.978 103.156 260.16 103.1C260.118 102.862 260.09 102.47 260.076 102.204C259.894 102.246 259.586 102.274 259.376 102.274H258.298C258.074 102.274 258.032 102.134 258.032 101.742V98.5076H253.622V100.048C253.622 101.042 253.37 102.19 251.816 103.044C252.012 103.212 252.376 103.604 252.502 103.814C254.224 102.82 254.602 101.322 254.602 100.076V99.4876ZM252.054 105.102L251.914 104.15L250.612 104.528V101.798H252.348V100.818H250.612V98.0176H249.59V100.818H247.686V101.798H249.59V104.808C248.806 105.032 248.092 105.228 247.518 105.368L247.826 106.376L249.59 105.858V109.47C249.59 109.666 249.52 109.736 249.324 109.736C249.156 109.736 248.554 109.75 247.882 109.722C248.008 110.002 248.162 110.422 248.204 110.688C249.156 110.688 249.744 110.66 250.094 110.492C250.458 110.338 250.612 110.058 250.612 109.47V105.536L252.054 105.102ZM257.99 105.13C257.486 106.194 256.716 107.076 255.806 107.804C254.91 107.048 254.168 106.152 253.678 105.13H257.99ZM258.718 104.108L258.522 104.15H252.264V105.13H252.81L252.67 105.186C253.23 106.432 254 107.51 254.952 108.392C253.818 109.092 252.516 109.582 251.172 109.876C251.368 110.1 251.592 110.534 251.69 110.828C253.16 110.45 254.574 109.89 255.792 109.064C256.884 109.862 258.214 110.45 259.712 110.814C259.852 110.52 260.132 110.086 260.37 109.862C258.97 109.568 257.71 109.078 256.66 108.42C257.864 107.412 258.83 106.096 259.39 104.416L258.718 104.108ZM269.036 100.51H266.838V99.4316H269.036V100.51ZM272.27 101.294V102.904H270.03V101.294H272.27ZM266.838 101.294H269.036V102.904H266.838V101.294ZM263.744 101.294H265.872V102.904H263.744V101.294ZM265.872 100.51H262.778V103.702H273.292V100.51H270.03V99.4316H273.978V98.5636H261.938V99.4316H265.872V100.51ZM272.55 105.452V104.626H263.492V105.452H272.55ZM264.822 107.622C264.094 108.49 262.862 109.302 261.672 109.82C261.896 109.974 262.302 110.338 262.456 110.506C263.618 109.904 264.948 108.966 265.774 107.958L264.822 107.622ZM270.03 108.21C271.178 108.868 272.648 109.82 273.362 110.45L274.16 109.848C273.39 109.204 271.906 108.28 270.772 107.664L270.03 108.21ZM261.784 106.418V107.272H267.482V110.828H268.504V107.272H274.244V106.418H261.784Z" fill="#EC502B"/>
<path d="M12.978 100.034V98.9976H1.022V100.034H7.21C5.824 102.428 3.43 104.752 0.672 106.138C0.882 106.376 1.218 106.782 1.372 107.048C3.318 106.026 5.026 104.584 6.44 102.974V110.758H7.546V101.574C7.896 101.056 8.232 100.552 8.54 100.034H12.978ZM7.826 103.044C9.478 104.136 11.55 105.788 12.544 106.852L13.37 106.054C12.348 104.99 10.22 103.422 8.596 102.372L7.826 103.044ZM25.844 99.4596C25.732 102.288 25.592 103.38 25.368 103.632C25.242 103.772 25.13 103.8 24.906 103.8C24.682 103.8 24.094 103.786 23.45 103.73C23.618 103.996 23.716 104.374 23.744 104.654C24.36 104.682 24.976 104.682 25.326 104.654C25.704 104.626 25.97 104.528 26.208 104.248C26.544 103.814 26.698 102.554 26.852 99.0116C26.852 98.8716 26.866 98.5636 26.866 98.5636H20.048V99.4596H22.932C22.862 100.146 22.764 100.79 22.582 101.392C22.05 100.93 21.322 100.328 20.734 99.8656L20.188 100.454C20.846 101 21.7 101.742 22.218 102.274C21.756 103.212 21 103.968 19.754 104.486C19.964 104.654 20.244 104.99 20.356 105.228C22.932 104.08 23.632 101.98 23.884 99.4596H25.844ZM22.372 105.242C22.946 105.886 23.576 106.782 23.87 107.328L24.556 106.852C24.248 106.306 23.604 105.466 23.016 104.836L22.372 105.242ZM17.836 99.8796C17.64 99.3756 17.276 98.6056 16.912 98.0316L16.03 98.3396C16.366 98.9416 16.744 99.7396 16.898 100.244L17.836 99.8796ZM19.53 100.328H14.602V101.196H19.53V100.328ZM19.194 102.218H14.966V103.044H19.194V102.218ZM14.966 104.92H19.194V104.08H14.966V104.92ZM18.228 106.81V109.148H15.848V106.81H18.228ZM19.124 105.956H14.966V110.646H15.848V110.002H19.124V105.956ZM19.908 109.442C20.384 108.672 20.692 107.398 20.874 106.39L20.132 106.166C19.964 107.118 19.628 108.35 19.152 109.106L19.908 109.442ZM22.722 109.652C22.246 109.652 22.148 109.582 22.148 109.246V105.844H21.238V109.246C21.238 110.212 21.518 110.492 22.624 110.492H24.444C25.41 110.492 25.662 110.044 25.76 108.14C25.508 108.084 25.13 107.944 24.934 107.79C24.892 109.414 24.808 109.652 24.346 109.652H22.722ZM25.522 105.858C26.012 106.796 26.502 108.042 26.698 108.798L27.496 108.49C27.3 107.748 26.768 106.53 26.264 105.606L25.522 105.858ZM40.95 101.196C40.768 100.58 40.278 99.5856 39.844 98.8296L39.032 99.1516C39.48 99.9076 39.928 100.916 40.11 101.56L40.95 101.196ZM37.254 99.5156H35.84C35.686 99.0956 35.42 98.5216 35.154 98.1016L34.328 98.3396C34.524 98.6896 34.734 99.1376 34.888 99.5156H33.012V100.342H37.254V99.5156ZM31.5 99.8236C31.304 99.3476 30.87 98.5916 30.478 98.0456L29.75 98.3536C30.128 98.9276 30.548 99.6976 30.744 100.174L31.5 99.8236ZM31.542 106.796V109.148H30.016V106.796H31.542ZM32.34 105.956H29.218V110.646H30.016V109.988H32.34V105.956ZM29.232 104.906H32.34V104.066H29.232V104.906ZM29.232 103.044H32.34V102.218H29.232V103.044ZM28.77 101.238H32.662V100.384H28.77V101.238ZM34.188 108.042V106.726H36.148V108.042H34.188ZM36.148 104.682V105.97H34.188V104.682H36.148ZM40.166 103.898C39.886 104.822 39.508 105.676 39.074 106.474C38.934 105.536 38.822 104.388 38.738 103.142H41.202V102.246H38.682C38.612 100.93 38.57 99.5156 38.556 98.0316H37.632C37.66 99.5156 37.702 100.93 37.772 102.246H36.33C36.498 101.784 36.68 101.182 36.848 100.622L35.994 100.468C35.91 100.972 35.728 101.714 35.574 102.246H34.706C34.65 101.756 34.496 101.028 34.314 100.482L33.558 100.594C33.698 101.112 33.838 101.756 33.894 102.246H32.746V103.142H37.814C37.926 104.892 38.094 106.404 38.318 107.65C37.926 108.196 37.478 108.7 37.03 109.148V103.926H33.334V109.778H34.188V108.798H36.148V109.176H37.016C36.652 109.526 36.288 109.848 35.896 110.114C36.092 110.254 36.372 110.506 36.526 110.674C37.254 110.142 37.94 109.47 38.57 108.7C38.934 109.974 39.438 110.73 40.138 110.744C40.6 110.744 41.062 110.24 41.328 108.294C41.16 108.21 40.796 107.958 40.614 107.748C40.53 108.896 40.376 109.554 40.152 109.568C39.816 109.554 39.508 108.882 39.284 107.748C39.97 106.726 40.558 105.564 40.978 104.304L40.166 103.898ZM53.634 100.594C53.004 99.9076 51.758 98.9416 50.736 98.2976L49.98 98.7036C50.386 98.9696 50.82 99.2916 51.226 99.6136L46.466 99.7816C47.18 99.3896 47.908 98.9136 48.58 98.4096L47.656 97.9476C46.802 98.6896 45.64 99.3756 45.262 99.5576C44.94 99.7396 44.646 99.8516 44.394 99.8796C44.506 100.118 44.66 100.594 44.702 100.776C45.136 100.636 45.794 100.636 52.108 100.342C52.388 100.594 52.626 100.832 52.822 101.042L53.634 100.594ZM52.542 107.02C50.988 108.616 47.866 109.554 44.478 109.946C44.674 110.184 44.87 110.548 44.982 110.8C48.482 110.31 51.688 109.26 53.396 107.44L52.542 107.02ZM49.378 104.262C48.37 105.046 46.494 105.774 44.996 106.194C45.22 106.362 45.458 106.642 45.612 106.838C47.138 106.362 49 105.564 50.148 104.64L49.378 104.262ZM50.904 105.606C49.616 106.656 47.222 107.496 45.094 107.916C45.304 108.14 45.528 108.448 45.654 108.672C47.852 108.154 50.26 107.216 51.702 106.012L50.904 105.606ZM55.104 103.492C54.81 102.89 54.138 102.05 53.508 101.42L52.78 101.756C52.976 101.966 53.186 102.19 53.368 102.428L51.464 102.54C51.8 102.162 52.136 101.714 52.402 101.28L51.464 100.888C51.184 101.532 50.68 102.19 50.512 102.344C50.372 102.512 50.218 102.61 50.064 102.652L50.134 102.806C49.868 102.582 49.658 102.358 49.448 102.134C49.532 102.008 49.616 101.868 49.686 101.742L48.734 101.448C48.412 102.022 48.02 102.526 47.558 102.974C47.334 102.582 47.012 102.092 46.704 101.7L45.948 101.966C46.088 102.148 46.228 102.33 46.368 102.54L44.744 102.61C45.178 102.19 45.626 101.7 45.99 101.196L45.052 100.79C44.646 101.504 44.002 102.19 43.792 102.372C43.61 102.554 43.414 102.666 43.232 102.708C43.358 102.932 43.512 103.38 43.568 103.59C43.792 103.492 44.226 103.436 46.788 103.282C46.83 103.38 46.872 103.464 46.9 103.562C45.71 104.486 44.226 105.186 42.616 105.662C42.812 105.844 43.106 106.264 43.218 106.474C45.458 105.704 47.516 104.542 48.916 102.862C50.4 104.416 52.724 105.704 54.908 106.362C55.062 106.11 55.342 105.732 55.566 105.55C53.942 105.13 52.248 104.346 50.918 103.422C51.352 103.366 52.192 103.296 53.9 103.17C54.082 103.436 54.222 103.66 54.32 103.87L55.104 103.492ZM67.928 99.2776V100.216H65.912V99.2776H67.928ZM68.208 102.694C68.572 102.694 68.964 102.68 69.174 102.624C69.132 102.428 69.104 102.106 69.09 101.882C68.852 101.924 68.418 101.938 68.18 101.938H66.276C65.968 101.938 65.912 101.812 65.912 101.42V100.93H68.838V98.5776H65.044V101.406C65.044 102.344 65.282 102.694 66.248 102.694H68.208ZM63.434 99.2636V100.202H61.46V99.2636H63.434ZM61.46 101.98V100.916H64.33V98.5636H60.62V101.42C60.62 101.952 60.41 102.12 60.256 102.204C60.368 102.414 60.564 102.806 60.62 103.044C60.858 102.904 61.264 102.82 64.372 102.26C64.372 102.078 64.414 101.756 64.456 101.518L61.46 101.98ZM63.602 104.752H65.786V106.04H63.602V104.752ZM69.23 106.04H66.752V104.752H68.782V103.94H66.752V102.932H65.786V103.94H63.602V102.932H62.636V103.94H60.704V104.752H62.636V106.04H60.13V106.852H69.23V106.04ZM69.006 108.616C68.334 108.098 67.158 107.454 66.122 106.964L65.422 107.44C66.444 107.93 67.494 108.574 68.082 109.092L69.006 108.616ZM63.098 106.978C62.44 107.552 61.39 108.112 60.396 108.504C60.634 108.63 61.012 108.952 61.194 109.148C62.146 108.7 63.28 107.986 64.022 107.3L63.098 106.978ZM59.542 100.23C59.15 99.6696 58.394 98.7876 57.75 98.1016L56.98 98.5776C57.596 99.2636 58.366 100.216 58.744 100.804L59.542 100.23ZM59.528 104.654L59.346 104.682H57.988C58.632 103.73 59.5 102.232 59.976 101.434L59.29 101.154L59.122 101.224H56.714V102.092H58.576C58.1 102.96 57.428 104.094 57.176 104.388C56.952 104.654 56.756 104.738 56.56 104.794C56.672 105.004 56.868 105.48 56.924 105.732C57.036 105.634 57.414 105.536 57.722 105.536H58.982C58.562 107.692 57.68 109.246 56.462 110.114C56.672 110.254 57.008 110.604 57.148 110.828C57.806 110.324 58.38 109.624 58.87 108.728C59.962 110.31 61.74 110.59 64.582 110.59C66.122 110.59 67.886 110.548 69.202 110.478C69.258 110.184 69.37 109.708 69.538 109.47C68.096 109.596 66.066 109.666 64.582 109.666C61.936 109.666 60.172 109.442 59.248 107.888C59.584 107.02 59.864 105.998 60.032 104.85L59.528 104.654ZM78.694 101.574H81.396C81.116 103.422 80.682 104.99 80.01 106.278C79.366 104.99 78.918 103.464 78.596 101.812L78.694 101.574ZM83.384 101.574V100.594H79.016C79.24 99.8376 79.45 99.0116 79.618 98.1856L78.582 98.0036C78.204 100.104 77.574 102.092 76.636 103.548V103.058H74.732V100.006H77.154V98.9976H70.756V100.006H73.724V107.804L72.296 108.112V102.106H71.344V108.322L70.518 108.49L70.714 109.526C72.45 109.134 74.928 108.546 77.224 107.986L77.126 107.048L74.732 107.594V104.038H76.3L76.23 104.136C76.454 104.29 76.888 104.64 77.056 104.822C77.378 104.374 77.686 103.856 77.966 103.296C78.33 104.78 78.792 106.124 79.408 107.272C78.624 108.392 77.602 109.26 76.23 109.918C76.426 110.142 76.72 110.59 76.832 110.828C78.148 110.142 79.184 109.274 79.982 108.224C80.724 109.316 81.648 110.198 82.796 110.8C82.964 110.534 83.286 110.128 83.51 109.918C82.306 109.358 81.354 108.462 80.598 107.3C81.508 105.774 82.068 103.898 82.446 101.574H83.384ZM86.128 99.9916H95.816V101.448H96.824V99.2776H94.346C94.612 98.9976 94.892 98.6616 95.144 98.3116L94.08 98.0876C93.87 98.4236 93.52 98.8996 93.226 99.2776H91.49V98.0036H90.454V99.2776H88.788C88.606 98.9136 88.27 98.4516 87.962 98.1016L87.024 98.3256C87.248 98.6196 87.486 98.9696 87.668 99.2776H85.162V101.448H86.128V99.9916ZM88.34 101.182H93.59V101.91H88.34V101.182ZM94.584 102.456V100.622H87.388V102.456H94.584ZM92.848 105.116C93.142 104.836 93.492 104.458 93.828 104.052L93.128 103.744C92.946 104.038 92.596 104.528 92.33 104.85L92.848 105.116ZM88.858 105.144L89.46 104.766C89.32 104.486 88.984 104.066 88.676 103.786L88.074 104.108C88.368 104.43 88.662 104.85 88.816 105.144H87.22V103.646H90.454V105.144H88.858ZM94.822 105.144H91.448V103.646H94.822V105.144ZM97.132 107.762H91.448V107.048H96.278V106.39H91.448V105.746H95.83V103.058H86.254V105.746H90.454V106.39H85.89V107.048H90.454V107.762H84.882V108.448H97.132V107.762ZM85.806 110.8C86.52 110.408 87.178 109.694 87.584 109.022L86.646 108.728C86.254 109.4 85.582 110.03 84.91 110.394L85.806 110.8ZM88.872 109.078C88.998 109.61 89.11 110.296 89.138 110.702L90.118 110.604C90.076 110.198 89.95 109.526 89.796 109.022L88.872 109.078ZM91.714 109.092C91.966 109.596 92.218 110.254 92.302 110.674L93.31 110.492C93.212 110.086 92.932 109.428 92.68 108.952L91.714 109.092ZM94.43 109.064C95.046 109.582 95.788 110.338 96.138 110.814L97.146 110.492C96.768 109.974 96.012 109.26 95.396 108.756L94.43 109.064ZM103.894 102.526L102.984 103.324C103.978 104.136 105.168 105.326 106.078 106.432L107.03 105.634C106.162 104.598 104.888 103.338 103.894 102.526ZM125.314 101.238H123.676C123.802 100.44 123.942 99.5296 124.04 98.7176L123.326 98.6336L123.158 98.6896H118.44V99.5716H122.962C122.878 100.09 122.794 100.692 122.682 101.238H117.656V102.134H125.314V101.238ZM115.262 98.0876C114.646 100.244 113.652 102.372 112.504 103.786C112.7 104.024 112.98 104.598 113.064 104.822C113.414 104.388 113.75 103.898 114.072 103.338V110.814H115.066V101.434C115.514 100.44 115.906 99.4036 116.214 98.3536L115.262 98.0876ZM116.186 108.084H117.11V101.07H116.186V108.084ZM125.328 107.146V106.25H121.968C121.968 106.152 121.968 106.068 121.968 105.97V104.43H124.866V103.548H119.84C119.994 103.198 120.134 102.82 120.246 102.442L119.308 102.218C118.944 103.436 118.328 104.64 117.572 105.41C117.81 105.55 118.202 105.816 118.384 105.956C118.748 105.536 119.112 105.018 119.42 104.43H120.946V105.956C120.946 106.054 120.946 106.152 120.946 106.25H117.684V107.146H120.806C120.512 108.168 119.658 109.26 117.222 110.058C117.446 110.24 117.754 110.604 117.894 110.828C120.61 109.834 121.562 108.434 121.842 107.146H125.328ZM121.884 107.93C122.864 108.812 124.138 110.016 124.754 110.73L125.524 110.114C124.852 109.414 123.564 108.238 122.598 107.412L121.884 107.93ZM137.928 99.2776V100.216H135.912V99.2776H137.928ZM138.208 102.694C138.572 102.694 138.964 102.68 139.174 102.624C139.132 102.428 139.104 102.106 139.09 101.882C138.852 101.924 138.418 101.938 138.18 101.938H136.276C135.968 101.938 135.912 101.812 135.912 101.42V100.93H138.838V98.5776H135.044V101.406C135.044 102.344 135.282 102.694 136.248 102.694H138.208ZM133.434 99.2636V100.202H131.46V99.2636H133.434ZM131.46 101.98V100.916H134.33V98.5636H130.62V101.42C130.62 101.952 130.41 102.12 130.256 102.204C130.368 102.414 130.564 102.806 130.62 103.044C130.858 102.904 131.264 102.82 134.372 102.26C134.372 102.078 134.414 101.756 134.456 101.518L131.46 101.98ZM133.602 104.752H135.786V106.04H133.602V104.752ZM139.23 106.04H136.752V104.752H138.782V103.94H136.752V102.932H135.786V103.94H133.602V102.932H132.636V103.94H130.704V104.752H132.636V106.04H130.13V106.852H139.23V106.04ZM139.006 108.616C138.334 108.098 137.158 107.454 136.122 106.964L135.422 107.44C136.444 107.93 137.494 108.574 138.082 109.092L139.006 108.616ZM133.098 106.978C132.44 107.552 131.39 108.112 130.396 108.504C130.634 108.63 131.012 108.952 131.194 109.148C132.146 108.7 133.28 107.986 134.022 107.3L133.098 106.978ZM129.542 100.23C129.15 99.6696 128.394 98.7876 127.75 98.1016L126.98 98.5776C127.596 99.2636 128.366 100.216 128.744 100.804L129.542 100.23ZM129.528 104.654L129.346 104.682H127.988C128.632 103.73 129.5 102.232 129.976 101.434L129.29 101.154L129.122 101.224H126.714V102.092H128.576C128.1 102.96 127.428 104.094 127.176 104.388C126.952 104.654 126.756 104.738 126.56 104.794C126.672 105.004 126.868 105.48 126.924 105.732C127.036 105.634 127.414 105.536 127.722 105.536H128.982C128.562 107.692 127.68 109.246 126.462 110.114C126.672 110.254 127.008 110.604 127.148 110.828C127.806 110.324 128.38 109.624 128.87 108.728C129.962 110.31 131.74 110.59 134.582 110.59C136.122 110.59 137.886 110.548 139.202 110.478C139.258 110.184 139.37 109.708 139.538 109.47C138.096 109.596 136.066 109.666 134.582 109.666C131.936 109.666 130.172 109.442 129.248 107.888C129.584 107.02 129.864 105.998 130.032 104.85L129.528 104.654ZM146.412 98.0596C146.37 100.188 146.454 106.992 140.644 109.932C140.966 110.142 141.302 110.464 141.484 110.744C144.9 108.924 146.384 105.788 147.028 102.988C147.7 105.592 149.198 109.05 152.698 110.688C152.852 110.394 153.16 110.044 153.454 109.806C148.512 107.608 147.672 101.756 147.462 100.09C147.532 99.2636 147.546 98.5636 147.56 98.0596H146.412Z" fill="#EC502B"/>
<path d="M169.061 49.7822C169.646 49.1964 169.646 48.2467 169.061 47.6609L159.515 38.115C158.929 37.5292 157.979 37.5292 157.393 38.115C156.808 38.7007 156.808 39.6505 157.393 40.2363L165.879 48.7216L157.393 57.2068C156.808 57.7926 156.808 58.7424 157.393 59.3282C157.979 59.9139 158.929 59.9139 159.515 59.3282L169.061 49.7822ZM124 50.2216H168V47.2216H124V50.2216Z" fill="#EC502B"/>
</svg>
