<svg width="160" height="158" viewBox="0 0 160 158" fill="none" xmlns="http://www.w3.org/2000/svg">
<ellipse cx="80" cy="80" rx="80" ry="74" fill="white"/>
<path d="M113.648 0.976057C112.98 1.17589 112.613 1.8704 112.828 2.52728L119.446 22.7468C119.661 23.4037 120.377 23.7742 121.044 23.5744L123.462 22.8507C124.13 22.6509 124.497 21.9564 124.282 21.2995L117.664 1.07995C117.449 0.423066 116.734 0.0525566 116.066 0.252392L113.648 0.976057Z" fill="#2584A3"/>
<path d="M110.369 7.18093L106.742 8.26643L111.024 21.3497L114.651 20.2642L117.653 21.3246L112.203 4.67319L110.369 7.18093Z" fill="#2584A3"/>
<path d="M105.144 7.43888L100.308 8.88621L104.979 23.1588L109.815 21.7115L105.144 7.43888Z" fill="#2584A3"/>
<path d="M100.143 24.6062L103.77 23.5207L99.488 10.4374L95.861 11.5229L92.859 10.4625L98.3089 27.1139L100.143 24.6062Z" fill="#2584A3"/>
<path d="M96.864 30.811C97.5317 30.6112 97.8988 29.9167 97.6838 29.2598L91.0661 9.04027C90.8511 8.38338 90.1355 8.01288 89.4678 8.21271L87.0498 8.93638C86.3821 9.13621 86.015 9.83072 86.23 10.4876L92.8477 30.7071C93.0627 31.364 93.7783 31.7345 94.446 31.5347L96.864 30.811Z" fill="#2584A3"/>
<path fill-rule="evenodd" clip-rule="evenodd" d="M105.299 24.0328L110.135 22.5854L119.594 51.8055L116.927 52.6036C116.506 65.3474 113.152 82.9893 105.676 96.1891C107 107.5 105.676 139.5 102.402 153.744C93.1463 159.686 62.5335 159.146 56 153.744C54.0154 142.5 49.5077 113.5 51.9611 105.826C47.1235 105.826 46.7575 113.652 48.0636 120.726C48.67 124.01 49.1406 126.559 48.5047 126.718C41.9853 126.718 34.5351 103.212 39.9796 96.1891C45.4242 89.1664 54.5232 80.9768 68.2948 80.9768L68.5812 80.954C57.6308 78.2699 49.5077 68.4075 49.5077 56.6517C49.5077 42.8314 60.7343 31.628 74.5829 31.628C88.4316 31.628 99.6582 42.8314 99.6582 56.6517C99.6582 66.2838 94.2048 74.6448 86.2112 78.8277C91.0056 77.3539 95.4617 74.5046 100.418 68.5521C106.003 61.8432 107.696 52.7855 108.973 45.9493C109.414 43.5899 109.884 41.5954 110.513 40.1376L105.299 24.0328ZM58.5757 65.1597C58.0797 67.4953 62.0215 75.6697 74.0034 75.6697C85.9853 75.6697 93.2945 66.3275 91.3106 61.6564C87.5109 68.3223 80.2357 69.2469 74.0034 69.2469C68.9131 69.2469 62.7926 68.8586 58.5757 65.1597ZM80.0493 96.1891C78.891 98.191 75.9956 98.191 74.8374 96.1891L72.2316 91.6848C71.0734 89.6829 72.5211 87.1805 74.8374 87.1805H80.0493C82.3656 87.1805 83.8133 89.6829 82.655 91.6848L80.0493 96.1891ZM85.4672 120.712C85.4674 118.21 83.4609 98.6915 77.5437 98.6916C71.6265 98.6916 69.9208 118.21 69.9208 120.712C69.9208 123.215 75.6388 130.621 77.544 130.621C79.4491 130.621 85.4672 123.215 85.4672 120.712Z" fill="#2584A3"/>
</svg>
