<svg width="147" height="155" viewBox="0 0 147 155" fill="none" xmlns="http://www.w3.org/2000/svg">
<g clip-path="url(#clip0)">
<path d="M73.5 154.778C113.817 154.778 146.5 121.871 146.5 81.278C146.5 40.6851 113.817 7.77802 73.5 7.77802C33.1832 7.77802 0.5 40.6851 0.5 81.278C0.5 121.871 33.1832 154.778 73.5 154.778Z" fill="white"/>
<path d="M100.686 27.456C94.627 24.929 90.627 20.579 90.627 15.636C90.627 7.829 100.607 1.5 112.919 1.5C125.231 1.5 135.212 7.829 135.212 15.636C135.212 23.443 125.227 29.773 112.919 29.773C111.178 29.7748 109.44 29.6457 107.719 29.387L100.686 35.74V27.456Z" fill="white" stroke="#2584A3" stroke-width="3"/>
<path d="M61.5 71.778C75.8594 71.778 87.5 60.1374 87.5 45.778C87.5 31.4186 75.8594 19.778 61.5 19.778C47.1406 19.778 35.5 31.4186 35.5 45.778C35.5 60.1374 47.1406 71.778 61.5 71.778Z" fill="#2584A3"/>
<path d="M73.5 95.778C88.4117 95.778 100.5 87.943 100.5 78.278C100.5 68.613 88.4117 60.778 73.5 60.778C58.5883 60.778 46.5 68.613 46.5 78.278C46.5 87.943 58.5883 95.778 73.5 95.778Z" fill="#2584A3"/>
<path d="M100.5 77.778H46.5V137.778H100.5V77.778Z" fill="#2584A3"/>
<path d="M107.339 16.264C106.761 16.264 106.285 16.74 106.285 17.318C106.285 17.896 106.761 18.372 107.339 18.372C107.917 18.372 108.393 17.896 108.393 17.318C108.393 16.723 107.934 16.264 107.339 16.264ZM113 16.264C112.422 16.264 111.946 16.74 111.946 17.318C111.946 17.896 112.422 18.372 113 18.372C113.578 18.372 114.054 17.896 114.054 17.318C114.054 16.723 113.595 16.264 113 16.264ZM118.678 16.264C118.1 16.264 117.624 16.74 117.624 17.318C117.624 17.896 118.1 18.372 118.678 18.372C119.256 18.372 119.732 17.896 119.732 17.318C119.732 16.723 119.273 16.264 118.678 16.264Z" fill="#2584A3"/>
<path d="M12.332 120.574V80.883H71.054V107.797H84.821L71.054 120.574H12.332Z" fill="#2584A3" stroke="white" stroke-width="2"/>
<path d="M42 96.778H41C38.5147 96.778 36.5 98.7927 36.5 101.278C36.5 103.763 38.5147 105.778 41 105.778H42C44.4853 105.778 46.5 103.763 46.5 101.278C46.5 98.7927 44.4853 96.778 42 96.778Z" fill="white"/>
<path d="M41.835 96.923C41.835 96.923 41.886 94.223 44.082 94.494C46.278 94.765 42.387 96.775 42.247 97.114C42.107 97.453 41.835 96.923 41.835 96.923Z" fill="white"/>
</g>
<defs>
<clipPath id="clip0">
<rect x="0.5" width="146" height="154.778" fill="white"/>
</clipPath>
</defs>
</svg>
