<svg width="214" height="148" viewBox="0 0 214 148" fill="none" xmlns="http://www.w3.org/2000/svg">
<ellipse cx="111" cy="74" rx="103" ry="74" fill="white"/>
<path fill-rule="evenodd" clip-rule="evenodd" d="M37.1296 134.213C34.4651 128.274 32.4251 108.361 33.3559 99.8326C33.4037 99.3953 33.1763 98.9766 32.7874 98.771C27.9626 96.2201 21.0411 89.5946 19.1432 85.9878C17.0399 81.9904 16.3612 56.7827 19.1433 56.7827C19.592 56.7827 20.1333 59.7501 20.8328 63.5847C21.9895 69.9262 23.5789 78.6396 25.8978 80.2262C26.0174 80.308 26.141 80.3928 26.2686 80.4801C29.9596 83.0085 36.8732 87.7444 40.9863 88.2401C36.2722 85.5817 32.9542 80.7234 32.5643 74.9847C31.9452 65.8725 38.9432 57.9912 48.1947 57.3814C57.4462 56.7717 65.4479 63.6643 66.067 72.7765C66.5123 79.3319 63.0156 85.2502 57.5737 88.2824H62.5915C67.3453 88.1638 77.3584 86.1843 79.3802 79.2142C80.8132 74.2744 79.9685 68.9538 79.5296 66.1888C79.3492 65.0523 79.2373 64.3476 79.3802 64.2784C81.2794 63.7313 88.3275 80.9811 85.725 87.9185C84.2017 91.979 79.8819 95.5977 76.4085 98.5074C73.546 100.905 71.2583 102.822 71.5845 104.107C71.7746 104.856 72.58 106.85 73.6405 109.475C76.6086 116.821 81.5749 129.113 80.6439 132.912C79.633 137.037 52.3539 135.576 37.1296 134.213ZM61.2508 75.3922C58.7255 84.1605 41.1129 81.0529 39.3205 79.2874C40.1171 80.8567 42.6675 85.7473 50.6149 85.7473C59.4357 85.7473 62.2968 78.9618 61.2508 75.3922Z" fill="#2584A3"/>
<path fill-rule="evenodd" clip-rule="evenodd" d="M114.79 88.2828C120.233 85.2507 123.73 79.3321 123.285 72.7764C122.665 63.6641 114.664 56.7715 105.412 57.3813C96.1608 57.9911 89.1629 65.8723 89.7819 74.9846C90.1742 80.7583 93.5305 85.6409 98.2905 88.2885C95.247 88.3513 93.9872 88.9307 91.4526 90.0964C90.949 90.3281 90.395 90.5829 89.7667 90.8613C85.0843 92.9367 80.902 99.2252 77.6179 106.162C75.6243 110.373 80.4913 116.925 84.3302 120.286C85.941 121.696 87.3708 122.544 88.0369 122.422C88.5942 122.552 87.572 119.148 86.5966 115.9C85.9388 113.71 85.3023 111.591 85.186 110.674C84.9903 109.132 86.8388 106.773 88.6313 104.73C89.2921 103.977 90.6744 104.589 90.6317 105.59C90.2513 114.496 91.9461 128.861 94.3474 134.214C109.572 135.577 136.851 137.038 137.862 132.912C138.793 129.113 133.826 116.821 130.858 109.475C129.798 106.85 128.992 104.857 128.802 104.108C128.476 102.822 130.764 100.906 133.626 98.5078C137.1 95.5981 141.419 91.9794 142.943 87.9189C145.545 80.9814 138.497 63.7317 136.598 64.2788C136.455 64.348 136.567 65.0527 136.747 66.1892C137.186 68.9542 138.031 74.2748 136.598 79.2146C134.576 86.1846 124.563 88.1642 119.809 88.2828H114.79ZM118.468 75.392C115.943 84.1603 98.3305 81.0527 96.5381 79.2873C97.3347 80.8566 99.8851 85.7471 107.833 85.7471C116.653 85.7471 119.514 78.9617 118.468 75.392Z" fill="#2584A3"/>
<path fill-rule="evenodd" clip-rule="evenodd" d="M172.008 88.2828C177.451 85.2507 180.948 79.3321 180.503 72.7764C179.884 63.6641 171.882 56.7715 162.63 57.3813C153.379 57.9911 146.381 65.8723 147 74.9846C147.392 80.7583 150.749 85.6409 155.509 88.2885C152.465 88.3513 151.205 88.9307 148.671 90.0964C148.167 90.3281 147.613 90.5829 146.985 90.8613C142.303 92.9367 138.12 99.2252 134.836 106.162C132.843 110.373 137.71 116.925 141.548 120.286C143.159 121.696 144.589 122.544 145.255 122.422C145.812 122.552 144.79 119.148 143.815 115.9C143.157 113.71 142.521 111.591 142.404 110.674C142.209 109.132 144.057 106.773 145.85 104.73C146.51 103.977 147.893 104.589 147.85 105.59C147.47 114.496 149.164 128.861 151.566 134.214C166.79 135.577 194.069 137.038 195.08 132.912C196.011 129.113 191.045 116.821 188.077 109.475C187.016 106.85 186.211 104.857 186.021 104.108C185.694 102.822 187.982 100.906 190.845 98.5078C194.318 95.5981 198.638 91.9794 200.161 87.9189C202.764 80.9814 195.715 63.7317 193.816 64.2788C193.673 64.348 193.785 65.0527 193.966 66.1892C194.405 68.9542 195.249 74.2748 193.816 79.2146C191.794 86.1846 181.781 88.1642 177.027 88.2828H172.008ZM175.687 75.392C173.161 84.1603 155.549 81.0527 153.756 79.2873C154.553 80.8566 157.103 85.7471 165.051 85.7471C173.871 85.7471 176.733 78.9617 175.687 75.392Z" fill="#2584A3"/>
<path fill-rule="evenodd" clip-rule="evenodd" d="M134.207 0.412843L1.57048 29.478L9.20841 64.3332L141.845 35.268L134.207 0.412843ZM127.341 28.6029L124.229 29.2949L122.962 23.5962L116.096 14.751L119.398 14.0169L121.8 17.477C122.499 18.5354 123.162 19.5353 123.913 20.6264L123.997 20.6077C124.066 20.1902 124.136 19.7838 124.204 19.3832C124.351 18.5307 124.492 17.7041 124.618 16.8505L125.328 12.6984L128.566 11.9784L126.074 22.9043L127.341 28.6029ZM111.939 32.0275L115.051 31.3355L112.167 18.3612L116.583 17.3793L116.003 14.7718L104.101 17.4182L104.681 20.0257L109.054 19.0532L111.939 32.0275ZM98.0169 35.1232L94.9047 35.8152L91.4401 20.2333L96.8653 19.027C100.125 18.3023 102.968 18.8837 103.763 22.4585C104.282 24.7926 103.427 26.5054 101.794 27.5968L106.849 33.1594L103.379 33.9309L98.8736 28.7537L96.7077 29.2353L98.0169 35.1232ZM95.104 22.0226L96.1607 26.775L98.1794 26.3261C100.177 25.882 101.104 24.793 100.735 23.1318C100.361 21.4496 99.1203 21.1296 97.1227 21.5738L95.104 22.0226ZM83.0143 29.9408C83.1169 28.2188 83.1868 26.3496 83.2076 24.5575L83.3127 24.5341C83.5662 25.0264 83.82 25.5293 84.0746 26.0341C84.6393 27.1534 85.2086 28.2818 85.79 29.3237L86.6314 30.9241L82.9304 31.747L83.0143 29.9408ZM79.4359 39.2547L82.5901 38.5533L82.7952 34.3148L87.842 33.1927L89.8238 36.9449L93.0832 36.2202L84.6138 21.7511L80.9549 22.5647L79.4359 39.2547ZM71.6907 40.9768L68.5785 41.6688L65.1139 26.087L70.2237 24.9508C73.6723 24.184 76.593 24.8145 77.4113 28.4944C78.2015 32.0482 75.8862 34.2401 72.5428 34.9835L70.461 35.4464L71.6907 40.9768ZM68.7777 27.8763L69.9139 32.9861L71.7854 32.57C73.9303 32.0931 74.7596 30.9598 74.3622 29.1724C73.9601 27.364 72.689 27.0066 70.5441 27.4835L68.7777 27.8763ZM46.0447 46.6792L49.8508 45.8329L49.8428 37.7579C49.824 36.4823 49.7678 35.2371 49.7115 33.9918L49.7115 33.9914L49.7956 33.9727C50.2514 35.1293 50.7492 36.2764 51.2727 37.44L54.7293 44.7482L58.5985 43.8879L58.0147 27.6655L55.0708 28.3201L55.5227 36.2081C55.6514 37.8787 55.7895 39.5913 55.9322 41.325L55.8271 41.3484C55.5717 40.7706 55.319 40.1921 55.0679 39.6174C54.6206 38.5934 54.1784 37.5813 53.7353 36.6055L50.2554 29.3908L47.5848 29.9846L47.4689 37.9989C47.4925 39.6928 47.5254 41.4289 47.5841 43.1812L47.5 43.1999C47.1593 42.2823 46.815 41.3795 46.4728 40.4823L46.4726 40.4817L46.4721 40.4805L46.4717 40.4794L46.4714 40.4786L46.4712 40.4781L46.471 40.4775L46.4706 40.4764L46.4702 40.4754C46.2051 39.7804 45.9413 39.0888 45.6816 38.3963L42.7483 31.06L39.5941 31.7613L46.0447 46.6792ZM41.4136 47.7089L31.6355 49.8831L28.1709 34.3013L37.7177 32.1785L38.2974 34.786L31.8628 36.2168L32.6624 39.8126L38.1297 38.5969L38.7095 41.2044L33.2421 42.4201L34.1679 46.5836L40.8338 45.1015L41.4136 47.7089ZM18.8289 52.7307L15.885 53.3852L12.4203 37.8034L15.5956 37.0974L21.9635 44.3982L24.2677 47.4167L24.3728 47.3934C24.2634 47.0511 24.1445 46.6894 24.0214 46.3149C23.5738 44.9531 23.0703 43.4212 22.7623 42.0359L21.3783 35.8116L24.3223 35.157L27.7869 50.7388L24.6327 51.4402L18.2811 44.1136L15.9606 41.1208L15.8554 41.1442C15.9662 41.4947 16.0835 41.8567 16.2034 42.2267L16.2035 42.227L16.2037 42.2276L16.2037 42.2278C16.6479 43.5985 17.1274 45.0781 17.4403 46.4853L18.8289 52.7307Z" fill="#2584A3"/>
</svg>
