<svg width="179" height="143" viewBox="0 0 179 143" fill="none" xmlns="http://www.w3.org/2000/svg">
<ellipse cx="84.4215" cy="97.2779" rx="71.7731" ry="45.2779" fill="white"/>
<path fill-rule="evenodd" clip-rule="evenodd" d="M116.269 44.2114C120.575 39.516 123.214 33.1876 123.214 26.2256C123.214 11.7416 111.791 0 97.7011 0C85.3837 0 75.105 8.97256 72.7133 20.9061C73.494 20.0088 74.4807 19.3656 75.6239 19.086C78.6056 18.3566 81.7208 20.3281 83.3325 23.674C84.0983 23.4396 84.9126 23.4649 85.6069 23.6363C86.2469 23.7943 86.8998 24.0977 87.4706 24.5393C88.4612 23.1727 89.8068 22.0824 91.4391 21.4405C96.2709 19.5403 101.784 22.2895 103.754 27.5808C105.723 32.8721 103.402 38.7019 98.5705 40.602C93.7387 42.5021 88.2253 39.753 86.2561 34.4617C85.3577 32.0478 85.3521 29.5219 86.0704 27.3081C85.8448 26.979 85.4332 26.6788 84.9253 26.5534C84.6353 26.4818 84.4156 26.4859 84.2532 26.5249C85.0709 31.025 83.0408 35.2436 79.5615 36.0947C77.2802 36.6528 74.9207 35.6298 73.2163 33.6199C75.7471 42.4893 82.7149 49.4088 91.4812 51.6662C77.069 53.6815 63.8857 59.4775 60.8503 64.4712C58.4734 68.3816 63.1645 77.2454 66.1156 79.5459L65.2117 81.4501L68.1766 82.9372L74.3467 69.9384L71.3818 68.4514L68.5077 74.5063L68.4969 74.3147C68.3523 71.7627 68.2129 69.3033 69.708 68.8421C73.2507 67.7493 77.8579 67.3851 80.3384 68.8421C81.2287 69.3651 80.6582 75.1912 79.9215 82.7156C79.6628 85.3566 79.3838 88.2068 79.1402 91.1104L47.3478 87L21.4053 112.814L66.3181 120.425L79.0954 91.6494C78.1331 103.364 77.8023 115.787 81.7569 118.744C89.5525 124.571 128.176 125.3 134.909 122.022C139.893 119.595 138.327 77.2923 135.711 55C135.451 54.9109 135.448 54.9272 135.416 55.125C135.405 55.1927 135.391 55.2816 135.361 55.3948C134.522 58.6366 133.24 61.8717 131.771 64.4975C130.331 67.0716 128.611 69.2441 126.818 70.1115C124.63 71.1702 119.527 73.0996 114.98 74.4448C112.708 75.1167 110.523 75.6588 108.883 75.8666C108.08 75.9685 107.316 76.0029 106.718 75.8856C106.42 75.8272 106.067 75.7138 105.772 75.467C105.437 75.1864 105.234 74.7784 105.234 74.306C105.234 73.3734 105.623 72.5074 106.202 71.6948C106.781 70.8818 107.61 70.0386 108.626 69.1338C110.125 67.7979 112.144 66.232 114.59 64.3355L114.592 64.3344C115.447 63.6711 116.355 62.9673 117.31 62.2188C120.16 59.987 121.638 57.7616 122.418 55.7509C123.287 53.5063 125.31 42.4627 122.092 43C119.767 43.3881 117.909 43.778 116.269 44.2114ZM120.985 22.3801C121.543 25.5876 120.057 28.5443 117.666 28.9843C115.275 29.4242 112.883 27.1807 112.325 23.9732C111.767 20.7658 114.801 12.5294 114.801 12.5294C114.633 11.5615 120.426 19.1727 120.985 22.3801ZM137.115 24.5736C138.061 23.3517 137.57 21.3327 136.019 20.064C134.468 18.7954 128.689 17.6824 129.158 18.0652C129.158 18.0652 131.043 23.2204 132.594 24.4891C134.145 25.7577 136.169 25.7956 137.115 24.5736ZM129.874 46C127.719 45 126.87 44.886 125.99 46.5C125.699 47.0337 125.548 48.4618 125.369 50.1483C125.143 52.277 124.874 54.8174 124.225 56.491C123.303 58.8694 121.593 61.3791 118.489 63.8097C117.501 64.5837 116.574 65.3029 115.708 65.9744C113.286 67.8525 111.345 69.3574 109.9 70.6451C108.922 71.516 108.223 72.2437 107.772 72.8764C107.465 73.3077 107.301 73.6561 107.228 73.9426C107.532 73.9756 108.001 73.9632 108.645 73.8816C110.128 73.6937 112.195 73.1873 114.442 72.5228C118.93 71.1951 123.927 69.2999 125.99 68.3018C127.209 67.7122 128.678 66.0146 130.084 63.5007C131.461 61.0384 132.682 57.9675 133.481 54.8804C134.283 51.7823 133.766 50.5 133.481 50C132.982 49.1235 131.124 46.5797 129.874 46ZM147.317 19.6266C148.962 20.7645 149.607 22.737 148.759 24.0324C147.91 25.3278 145.89 25.4555 144.245 24.3176C142.601 23.1797 140.323 18.1949 140.323 18.1949C139.827 17.8515 145.673 18.4888 147.317 19.6266ZM64.9861 82.25C64.9861 82.25 63.5998 87.2703 64.1475 87.3852C64.6951 87.5 67.6293 83.6032 67.6293 83.6032L64.9861 82.25Z" fill="#2584A3"/>
</svg>
