<svg width="354" height="59" viewBox="0 0 354 59" fill="none" xmlns="http://www.w3.org/2000/svg">
<circle cx="320.581" cy="14.3511" r="11.9263" transform="rotate(-3.82843 320.581 14.3511)" fill="#2584A3"/>
<path d="M309.255 38.2148C309.136 44.6664 310.303 54.198 311.924 57.865C322.739 58.8481 342.117 59.9018 342.835 56.9266C343.733 53.2076 336.913 38.2035 336.4 36.1517C335.887 34.0998 343.88 30.6314 346.445 24.4759C348.497 19.5515 344.289 9.69148 341.938 7.4259C342.536 8.92204 343.374 13.1711 341.938 18.1981C340.501 23.2251 333.388 24.6528 330.011 24.7383H315.135C312.207 24.7383 311.499 25.3248 308.67 26.5981C305.343 28.0949 302.373 32.6304 300.04 37.6334C298.623 40.6705 302.081 45.3961 304.808 47.82C305.952 48.837 306.968 49.4487 307.441 49.3604C308.104 49.5177 305.621 42.5289 305.416 40.8875C305.301 39.9664 306.181 38.6417 307.21 37.3769C307.845 36.5976 309.273 37.2102 309.255 38.2148Z" fill="#2584A3"/>
<path d="M329.059 15.4415C327.265 21.7655 314.753 19.5242 313.48 18.2509C314.046 19.3827 315.858 22.91 321.503 22.91C327.769 22.91 329.802 18.0161 329.059 15.4415Z" fill="white"/>
<rect x="336.541" y="3.3681" width="15.173" height="8.87038" rx="4" transform="rotate(-12.8253 336.541 3.3681)" fill="#EC502B"/>
<circle cx="260.638" cy="14.3511" r="11.9263" transform="rotate(-3.82843 260.638 14.3511)" fill="#2584A3"/>
<path d="M249.312 38.2148C249.194 44.6664 250.361 54.198 251.982 57.865C262.797 58.8481 282.175 59.9018 282.893 56.9266C283.791 53.2076 276.97 38.2035 276.458 36.1517C275.945 34.0998 283.938 30.6314 286.503 24.4759C288.554 19.5515 284.346 9.69148 281.995 7.4259C282.594 8.92204 283.432 13.1711 281.995 18.1981C280.559 23.2251 273.446 24.6528 270.069 24.7383H255.193C252.265 24.7383 251.557 25.3248 248.728 26.5981C245.401 28.0949 242.43 32.6304 240.097 37.6334C238.681 40.6705 242.139 45.3961 244.866 47.82C246.01 48.837 247.026 49.4487 247.499 49.3604C248.162 49.5177 245.679 42.5289 245.474 40.8875C245.358 39.9664 246.239 38.6417 247.268 37.3769C247.902 36.5976 249.331 37.2102 249.312 38.2148Z" fill="#2584A3"/>
<path d="M269.117 15.4415C267.323 21.7655 254.811 19.5242 253.538 18.2509C254.104 19.3827 255.916 22.91 261.561 22.91C267.827 22.91 269.86 18.0161 269.117 15.4415Z" fill="white"/>
<rect x="276.599" y="3.3681" width="15.173" height="8.87038" rx="4" transform="rotate(-12.8253 276.599 3.3681)" fill="#EC502B"/>
<circle cx="200.696" cy="14.3511" r="11.9263" transform="rotate(-3.82843 200.696 14.3511)" fill="#2584A3"/>
<path d="M189.37 38.2148C189.252 44.6664 190.419 54.198 192.039 57.865C202.854 58.8481 222.233 59.9018 222.951 56.9266C223.848 53.2076 217.028 38.2035 216.515 36.1517C216.002 34.0998 223.995 30.6314 226.56 24.4759C228.612 19.5515 224.404 9.69148 222.053 7.4259C222.652 8.92204 223.489 13.1711 222.053 18.1981C220.617 23.2251 213.504 24.6528 210.127 24.7383H195.251C192.322 24.7383 191.615 25.3248 188.785 26.5981C185.459 28.0949 182.488 32.6304 180.155 37.6334C178.739 40.6705 182.196 45.3961 184.923 47.82C186.068 48.837 187.083 49.4487 187.557 49.3604C188.219 49.5177 185.736 42.5289 185.531 40.8875C185.416 39.9664 186.297 38.6417 187.326 37.3769C187.96 36.5976 189.389 37.2102 189.37 38.2148Z" fill="#2584A3"/>
<path d="M209.174 15.4415C207.38 21.7655 194.869 19.5242 193.596 18.2509C194.162 19.3827 195.973 22.91 201.619 22.91C207.885 22.91 209.917 18.0161 209.174 15.4415Z" fill="white"/>
<rect x="216.657" y="3.3681" width="15.173" height="8.87038" rx="4" transform="rotate(-12.8253 216.657 3.3681)" fill="#EC502B"/>
<circle cx="140.754" cy="14.3511" r="11.9263" transform="rotate(-3.82843 140.754 14.3511)" fill="#2584A3"/>
<path d="M129.428 38.2148C129.309 44.6664 130.477 54.198 132.097 57.865C142.912 58.8481 162.291 59.9018 163.009 56.9266C163.906 53.2076 157.086 38.2035 156.573 36.1517C156.06 34.0998 164.053 30.6314 166.618 24.4759C168.67 19.5515 164.462 9.69148 162.111 7.4259C162.709 8.92204 163.547 13.1711 162.111 18.1981C160.675 23.2251 153.562 24.6528 150.185 24.7383H135.309C132.38 24.7383 131.673 25.3248 128.843 26.5981C125.517 28.0949 122.546 32.6304 120.213 37.6334C118.797 40.6705 122.254 45.3961 124.981 47.82C126.126 48.837 127.141 49.4487 127.614 49.3604C128.277 49.5177 125.794 42.5289 125.589 40.8875C125.474 39.9664 126.355 38.6417 127.384 37.3769C128.018 36.5976 129.446 37.2102 129.428 38.2148Z" fill="#2584A3"/>
<path d="M149.232 15.4415C147.438 21.7655 134.927 19.5242 133.653 18.2509C134.219 19.3827 136.031 22.91 141.677 22.91C147.943 22.91 149.975 18.0161 149.232 15.4415Z" fill="white"/>
<rect x="156.715" y="3.3681" width="15.173" height="8.87038" rx="4" transform="rotate(-12.8253 156.715 3.3681)" fill="#EC502B"/>
<circle cx="80.8117" cy="14.3511" r="11.9263" transform="rotate(-3.82843 80.8117 14.3511)" fill="#2584A3"/>
<path d="M69.4858 38.2148C69.3672 44.6664 70.5347 54.198 72.155 57.865C82.9699 58.8481 102.348 59.9018 103.066 56.9266C103.964 53.2076 97.1439 38.2035 96.6309 36.1517C96.1179 34.0998 104.111 30.6314 106.676 24.4759C108.728 19.5515 104.52 9.69148 102.169 7.4259C102.767 8.92204 103.605 13.1711 102.169 18.1981C100.732 23.2251 93.6194 24.6528 90.2425 24.7383H75.3666C72.438 24.7383 71.7306 25.3248 68.901 26.5981C65.5747 28.0949 62.6037 32.6304 60.2708 37.6334C58.8546 40.6705 62.312 45.3961 65.0391 47.82C66.1833 48.837 67.199 49.4487 67.6722 49.3604C68.3351 49.5177 65.8522 42.5289 65.647 40.8875C65.5318 39.9664 66.4124 38.6417 67.4416 37.3769C68.0758 36.5976 69.5043 37.2102 69.4858 38.2148Z" fill="#2584A3"/>
<path d="M89.29 15.4415C87.4961 21.7655 74.9846 19.5242 73.7113 18.2509C74.2772 19.3827 76.0889 22.91 81.7345 22.91C88.0006 22.91 90.0331 18.0161 89.29 15.4415Z" fill="white"/>
<rect x="96.7724" y="3.3681" width="15.173" height="8.87038" rx="4" transform="rotate(-12.8253 96.7724 3.3681)" fill="#EC502B"/>
<circle cx="20.8694" cy="14.3511" r="11.9263" transform="rotate(-3.82843 20.8694 14.3511)" fill="#2584A3"/>
<path d="M9.54348 38.2148C9.42488 44.6665 10.5924 54.198 12.2127 57.865C23.0276 58.8482 42.406 59.9018 43.1241 56.9266C44.0218 53.2077 37.2015 38.2036 36.6886 36.1517C36.1756 34.0999 44.1688 30.6315 46.7336 24.4759C48.7854 19.5515 44.5775 9.69154 42.2265 7.42596C42.8249 8.9221 43.6628 13.1711 42.2265 18.1981C40.7902 23.2251 33.6771 24.6529 30.3001 24.7384H15.4243C12.4956 24.7384 11.7882 25.3248 8.95865 26.5981C5.63238 28.0949 2.66143 32.6304 0.328436 37.6335C-1.08776 40.6705 2.36964 45.3962 5.09674 47.82C6.24101 48.837 7.25672 49.4488 7.72986 49.3605C8.39277 49.5178 5.90983 42.529 5.70465 40.8875C5.58951 39.9664 6.47009 38.6417 7.49931 37.3769C8.13345 36.5977 9.56194 37.2103 9.54348 38.2148Z" fill="#2584A3"/>
<path d="M29.3477 15.4415C27.5539 21.7655 15.0423 19.5242 13.769 18.2509C14.3349 19.3827 16.1466 22.91 21.7923 22.91C28.0584 22.91 30.0909 18.0161 29.3477 15.4415Z" fill="white"/>
<rect x="36.8301" y="3.3681" width="15.173" height="8.87038" rx="4" transform="rotate(-12.8253 36.8301 3.3681)" fill="#EC502B"/>
</svg>
