<svg width="250" height="250" viewBox="0 0 250 250" fill="none" xmlns="http://www.w3.org/2000/svg">
<path d="M218.932 205.137L218.933 205.151L218.934 205.165C219.572 211.899 214.449 217.608 208.112 217.472L103.348 211.961L103.333 211.96L103.318 211.96C97.9383 211.837 93.4399 207.498 92.9381 201.793L92.9379 201.79L79.0342 48.7054C79.0341 48.7049 79.0341 48.7045 79.0341 48.704C78.4531 42.0905 83.4216 36.474 89.6463 36.474H198.131C201.1 36.474 203.48 36.7911 205.171 37.7473C206.767 38.6492 207.876 40.1954 208.148 43.0417L218.932 205.137Z" fill="#FBE6E1" stroke="#EC502B" stroke-width="2"/>
<path d="M57.7115 225.304L57.7094 225.304C45.8358 224.902 37.0742 214.14 39.1794 202.571L39.1834 202.549L39.1854 202.527L54.0997 37.3756C54.7361 33.9389 57.8073 31.4739 61.3444 31.5784L200.863 35.703C204.959 35.8241 208.124 39.3119 207.822 43.35L195.214 211.995C194.445 222.281 185.632 230.123 175.219 229.771C175.218 229.771 175.218 229.771 175.218 229.771L57.7115 225.304Z" fill="#EC502B" stroke="#EC502B"/>
<path d="M39.7143 202.192L39.7183 202.171L39.7204 202.149L52.618 68.0488L204.944 74.8058L195.181 211.166C194.438 221.471 185.698 229.356 175.371 229.036L175.369 229.036L175.354 229.036L175.297 229.034L175.071 229.026L174.189 228.995L170.829 228.877C167.929 228.776 163.772 228.63 158.746 228.455C148.694 228.103 135.166 227.631 121.259 227.147C93.445 226.179 64.115 225.164 58.0572 224.977C46.2506 224.612 37.5502 213.805 39.7143 202.192Z" fill="#FCF7F6" stroke="#EC502B"/>
<path d="M53.4354 58.5801L52.9697 58.5686L52.9254 59.0323L39.2217 202.31C37.1311 213.6 45.5931 224.102 57.0733 224.457L175.386 228.516L175.387 228.516C185.436 228.827 193.94 221.155 194.662 211.128L205.347 62.8456L205.384 62.3227L204.86 62.3098L53.4354 58.5801ZM38.7143 202.192L38.7183 202.171L38.7204 202.149L52.6188 58.0395L205.943 61.816L195.181 211.166C194.439 221.471 185.698 229.356 175.371 229.036L57.0589 224.977L57.0572 224.977C45.2506 224.612 36.5502 213.805 38.7143 202.192Z" fill="#EC502B" stroke="#EC502B"/>
<path d="M76.3212 179.419L76.3197 179.454L76.3198 179.489L76.3428 186.351L76.3429 186.391L76.3451 186.431C76.3757 186.974 76.5657 187.594 77.0877 188.069C77.5849 188.521 78.189 188.663 78.6892 188.687L110.813 190.644L110.826 190.644L110.839 190.645C111.554 190.676 112.205 190.345 112.597 189.736C112.911 189.247 112.987 188.692 113.005 188.275L113.007 188.233L113.006 188.192L112.921 180.926L112.92 180.888L112.918 180.851C112.893 180.447 112.792 179.913 112.434 179.448C112.026 178.919 111.444 178.68 110.878 178.656L110.821 178.653L110.764 178.655L101.35 178.964L103.619 137.378L104.666 128.888L104.673 128.829L104.675 128.769C104.696 128.297 104.623 127.701 104.245 127.173C103.843 126.611 103.262 126.353 102.726 126.27L102.714 126.268L102.701 126.266L96.758 125.446L96.6008 125.424L96.4425 125.436C95.823 125.482 95.1999 125.631 94.5796 125.861L79.7591 131.189C79.2811 131.354 78.7929 131.623 78.4119 132.062C78.01 132.526 77.8117 133.084 77.7867 133.66L77.7828 133.75L77.7896 133.839L78.173 138.872L78.1756 138.906L78.1797 138.94C78.2227 139.291 78.3034 139.762 78.5208 140.162L78.5689 140.251L78.6285 140.333C79.1417 141.034 79.9333 141.153 80.3663 141.172L80.4623 141.176L80.558 141.168L91.3836 140.251L89.722 178.512L78.6623 177.26L78.6106 177.255L78.5587 177.252C78.0401 177.23 77.394 177.368 76.9004 177.905C76.4505 178.395 76.3398 178.991 76.3212 179.419ZM124.14 181.496L124.138 181.531L124.138 181.566L124.161 188.428L124.161 188.468L124.164 188.507C124.194 189.051 124.384 189.671 124.906 190.145C125.403 190.598 126.008 190.74 126.508 190.764L158.632 192.72L158.645 192.721L158.658 192.722C159.372 192.753 160.024 192.421 160.415 191.812C160.729 191.324 160.806 190.768 160.824 190.351L160.826 190.31L160.825 190.268L160.739 183.002L160.739 182.965L160.737 182.928C160.712 182.524 160.61 181.99 160.252 181.525C159.844 180.996 159.263 180.757 158.697 180.733L158.64 180.73L158.582 180.732L149.169 181.041L151.437 139.455L152.484 130.964L152.491 130.905L152.494 130.846C152.514 130.373 152.441 129.778 152.064 129.25C151.662 128.688 151.081 128.429 150.545 128.346L150.532 128.344L150.519 128.342L144.577 127.523L144.419 127.501L144.261 127.513C143.642 127.558 143.018 127.708 142.398 127.937L127.578 133.266C127.1 133.431 126.611 133.699 126.23 134.139C125.829 134.603 125.63 135.161 125.605 135.737L125.601 135.827L125.608 135.916L125.991 140.948L125.994 140.982L125.998 141.016C126.041 141.368 126.122 141.838 126.339 142.239L126.387 142.328L126.447 142.409C126.96 143.111 127.752 143.23 128.185 143.249L128.281 143.253L128.377 143.245L139.202 142.328L137.541 180.589L126.481 179.337L126.429 179.331L126.377 179.329C125.859 179.306 125.212 179.445 124.719 179.982C124.269 180.471 124.158 181.068 124.14 181.496Z" fill="white" stroke="#EC502B" stroke-width="3"/>
<path d="M104.035 104.142L113.813 104.295L113.842 102.447L110.267 102.391L110.518 86.3868L108.815 86.36C107.833 86.9285 106.684 87.324 105.098 87.591L105.076 89.0017L108.238 89.0514L108.029 102.356L104.064 102.293L104.035 104.142Z" fill="#EC502B"/>
<path d="M127.582 97.0672C127.8 95.6353 127.894 94.25 127.914 92.9853L139.029 93.1598L138.965 97.246L127.582 97.0672ZM139.12 87.3955L139.057 91.433L127.941 91.2584L128.005 87.2209L139.12 87.3955ZM141.021 85.6493L126.208 85.4167L126.092 92.8593C126.031 96.7266 125.564 101.658 121.643 105.002C122.004 105.276 122.723 105.944 122.96 106.337C125.352 104.306 126.611 101.577 127.263 98.8382L138.937 99.0215L138.861 103.886C138.853 104.421 138.655 104.588 138.096 104.604C137.536 104.595 135.59 104.589 133.572 104.484C133.856 104.999 134.183 105.856 134.297 106.369C136.899 106.41 138.505 106.41 139.434 106.109C140.339 105.831 140.714 105.204 140.733 103.94L141.021 85.6493Z" fill="#EC502B"/>
<path d="M112.219 43.8821C112.219 48.0804 108.815 51.4837 104.617 51.4837C100.419 51.4837 97.0155 48.0804 97.0155 43.8821C97.0155 39.6838 100.419 36.2805 104.617 36.2805C108.815 36.2805 112.219 39.6838 112.219 43.8821Z" fill="white"/>
<path d="M159.349 45.4024C159.349 49.6007 155.946 53.0041 151.747 53.0041C147.549 53.0041 144.146 49.6007 144.146 45.4024C144.146 41.2042 147.549 37.8008 151.747 37.8008C155.946 37.8008 159.349 41.2042 159.349 45.4024Z" fill="white"/>
<path d="M101.857 21.063C102.056 18.5519 104.252 16.6774 106.763 16.8763C109.275 17.0752 111.149 19.2721 110.95 21.7832L109.51 39.9701C109.311 42.4812 107.114 44.3557 104.603 44.1568C102.092 43.9579 100.217 41.761 100.416 39.2499L101.857 21.063Z" fill="#2584A3"/>
<path d="M148.987 22.5833C149.186 20.0722 151.383 18.1978 153.894 18.3966C156.405 18.5955 158.279 20.7924 158.08 23.3035L156.64 41.4905C156.441 44.0016 154.244 45.876 151.733 45.6771C149.222 45.4782 147.347 43.2814 147.546 40.7703L148.987 22.5833Z" fill="#2584A3"/>
</svg>
