<svg width="150" height="149" viewBox="0 0 150 149" fill="none" xmlns="http://www.w3.org/2000/svg">
<circle cx="73.7779" cy="73.7779" r="73.7779" fill="white"/>
<path d="M121.865 54.7139L129.265 53.0604L134.645 77.1385L127.245 78.792L121.865 54.7139Z" fill="#2584A3"/>
<path d="M43.2947 132.056C39.5253 132.399 33.7 80.3139 53.5746 75.5165C62.1411 71.7471 76.876 71.062 85.7853 71.062C94.6946 71.062 107.373 72.4326 111.143 72.4326C114.912 72.4326 128.961 66.2646 131.017 67.2926C133.073 68.3206 123.136 81.0509 116.282 84.4259C110.409 87.318 105.66 89.5658 98.1212 91.6218C100.52 98.8178 100.177 145.078 98.4639 147.134C96.7506 149.19 53.5746 148.847 51.8614 147.134C50.1482 145.42 48.4348 121.776 49.1201 115.951C49.8054 110.126 47.064 131.714 43.2947 132.056Z" fill="#2584A3"/>
<path fill-rule="evenodd" clip-rule="evenodd" d="M67.6238 75.5178C81.6282 75.5178 92.981 64.165 92.981 50.1606C92.981 36.1562 81.6282 24.8034 67.6238 24.8034C53.6194 24.8034 42.2666 36.1562 42.2666 50.1606C42.2666 64.165 53.6194 75.5178 67.6238 75.5178ZM51.9611 60.7312C59.8056 73.1807 78.5952 71.7161 85.0991 58.1483C85.4043 57.5117 83.9075 57.9719 81.4283 58.734C78.3463 59.6815 73.7462 61.0957 69.2023 61.4498C64.0567 61.8509 59.0892 61.1138 55.8031 60.6262C53.0631 60.2197 51.492 59.9865 51.9611 60.7312Z" fill="#2584A3"/>
<path fill-rule="evenodd" clip-rule="evenodd" d="M143.897 21.1174L95.0278 32.0376L101.13 59.3479L150 48.4277L143.897 21.1174ZM132.84 43.5986L129.938 44.262L124.945 32.901L127.35 32.3512L129.623 37.9394C129.825 38.4669 130.029 38.9936 130.235 39.5229C130.501 40.208 130.768 40.8982 131.033 41.5989L131.097 41.5842C131.045 40.2465 131.012 38.9212 130.986 37.6279L131.038 31.5082L133.075 31.0427L135.764 36.5356C136.107 37.2785 136.449 38.0492 136.795 38.829L136.796 38.83C136.99 39.2674 137.185 39.7076 137.383 40.1474L137.463 40.1291C137.346 38.806 137.233 37.499 137.127 36.224L136.746 30.2034L138.991 29.6902L139.51 42.0738L136.56 42.7482L133.888 37.1839C133.483 36.2979 133.097 35.4242 132.744 34.5433L132.68 34.5579C132.729 35.5084 132.777 36.4593 132.797 37.4331L132.84 43.5986ZM118.951 46.7736L126.407 45.0692L125.952 43.081L120.869 44.2429L120.144 41.0681L124.312 40.1151L123.858 38.1269L119.689 39.0798L119.062 36.338L123.969 35.2164L123.514 33.2281L116.235 34.8922L118.951 46.7736ZM106.941 49.519L109.185 49.0059L108.097 44.2437C107.852 43.1707 107.479 42.0431 107.133 40.9986C107.04 40.7165 106.949 40.4401 106.863 40.1728L106.943 40.1545L108.728 42.4291L113.611 47.9943L116.016 47.4445L113.3 35.563L111.055 36.0762L112.14 40.8223C112.382 41.8787 112.773 43.046 113.121 44.0837L113.121 44.0853C113.217 44.3701 113.309 44.6452 113.394 44.9056L113.314 44.9239L111.541 42.6297L106.646 37.0841L104.225 37.6376L106.941 49.519Z" fill="#2584A3"/>
</svg>
