<svg width="42" height="42" viewBox="0 0 42 42" fill="none" xmlns="http://www.w3.org/2000/svg">
<path d="M21.5 10C14 10 7.595 14.665 5 21.25C7.595 27.835 14 32.5 21.5 32.5C29 32.5 35.405 27.835 38 21.25C35.405 14.665 29 10 21.5 10ZM21.5 28.75C17.36 28.75 14 25.39 14 21.25C14 17.11 17.36 13.75 21.5 13.75C25.64 13.75 29 17.11 29 21.25C29 25.39 25.64 28.75 21.5 28.75ZM21.5 16.75C19.01 16.75 17 18.76 17 21.25C17 23.74 19.01 25.75 21.5 25.75C23.99 25.75 26 23.74 26 21.25C26 18.76 23.99 16.75 21.5 16.75Z" fill="#C4C4C4"/>
</svg>
