<svg width="206" height="155" viewBox="0 0 206 155" fill="none" xmlns="http://www.w3.org/2000/svg">
<ellipse cx="103" cy="80" rx="103" ry="75" fill="white"/>
<path fill-rule="evenodd" clip-rule="evenodd" d="M50.0063 141.027C47.3402 135.004 45.2993 114.802 46.2343 106.166C46.2814 105.731 46.0562 105.316 45.6707 105.11C40.8455 102.527 33.9186 95.8072 32.0199 92.15C29.9166 88.0986 29.2379 62.5503 32.02 62.5503C32.4688 62.5503 33.01 65.5577 33.7095 69.4442C34.8662 75.8714 36.4556 84.7025 38.7745 86.3106C38.8941 86.3935 39.0177 86.4794 39.1453 86.5679C42.8363 89.1305 49.7497 93.9302 53.8628 94.4328C49.1488 91.7384 45.8309 86.8145 45.441 80.9983C44.8219 71.763 51.8199 63.7752 61.0714 63.1572C70.3229 62.5392 78.3246 69.5249 78.9437 78.7603C79.389 85.4042 75.8924 91.4024 70.4505 94.4756H75.4682C80.222 94.3555 90.2351 92.3492 92.257 85.2849C93.6899 80.2784 92.8452 74.8859 92.4063 72.0835C92.2259 70.9317 92.114 70.2174 92.257 70.1473C94.1561 69.5928 101.204 87.0756 98.6017 94.1068C97.0784 98.2222 92.7587 101.89 89.2853 104.839C86.4227 107.269 84.135 109.212 84.4612 110.514C84.6513 111.273 85.4567 113.294 86.5172 115.954C89.4853 123.4 94.4516 135.858 93.5206 139.708C92.5097 143.889 65.2306 142.409 50.0063 141.027ZM74.1275 81.4113C71.6022 90.2981 53.9896 87.1485 52.1972 85.3592C52.9938 86.9497 55.5442 91.9063 63.4916 91.9063C72.3124 91.9063 75.1736 85.0292 74.1275 81.4113Z" fill="#2584A3"/>
<path fill-rule="evenodd" clip-rule="evenodd" d="M113.403 94.4758C118.845 91.4027 122.343 85.4042 121.897 78.7598C121.278 69.5244 113.276 62.5387 104.025 63.1567C94.7733 63.7747 87.7754 71.7625 88.3945 80.9979C88.7868 86.8496 92.143 91.7982 96.9031 94.4816C93.8595 94.5452 92.5997 95.1325 90.0651 96.3139C89.5615 96.5487 89.0075 96.8069 88.3792 97.0892C83.6968 99.1926 79.5146 105.566 76.2304 112.597C74.2368 116.865 79.1038 123.505 82.9428 126.911C84.5536 128.341 85.9834 129.2 86.6494 129.076C87.2068 129.208 86.1846 125.758 85.2092 122.467C84.5514 120.247 83.9149 118.099 83.7985 117.169C83.6029 115.607 85.4491 113.219 87.2407 111.149C87.898 110.39 89.2874 110.998 89.2449 112.001C88.8619 121.027 90.5573 135.599 92.9599 141.027C108.184 142.409 135.463 143.889 136.474 139.709C137.405 135.858 132.439 123.4 129.471 115.954C128.41 113.294 127.605 111.274 127.415 110.514C127.089 109.212 129.376 107.269 132.239 104.839C135.712 101.89 140.032 98.2223 141.555 94.107C144.158 87.0758 137.11 69.5929 135.211 70.1474C135.068 70.2175 135.179 70.9318 135.36 72.0836C135.799 74.886 136.643 80.2785 135.211 85.285C133.189 92.3493 123.176 94.3556 118.422 94.4758H113.403ZM117.081 81.4108C114.556 90.2976 96.9431 87.148 95.1506 85.3587C95.9473 86.9492 98.4977 91.9059 106.445 91.9059C115.266 91.9059 118.127 85.0287 117.081 81.4108Z" fill="#2584A3"/>
<path fill-rule="evenodd" clip-rule="evenodd" d="M156.985 94.4758C162.427 91.4027 165.924 85.4042 165.479 78.7598C164.86 69.5244 156.858 62.5387 147.607 63.1567C138.355 63.7747 131.357 71.7625 131.976 80.9979C132.369 86.8496 135.725 91.7982 140.485 94.4816C137.442 94.5452 136.182 95.1325 133.647 96.3139C133.144 96.5487 132.59 96.8069 131.961 97.0892C127.279 99.1926 123.097 105.566 119.812 112.597C117.819 116.865 122.686 123.505 126.525 126.911C128.136 128.341 129.565 129.2 130.231 129.076C130.789 129.208 129.767 125.758 128.791 122.467C128.133 120.247 127.497 118.099 127.381 117.169C127.185 115.607 129.031 113.219 130.823 111.149C131.48 110.39 132.869 110.998 132.827 112.001C132.444 121.027 134.139 135.599 136.542 141.027C151.766 142.409 179.045 143.889 180.056 139.709C180.987 135.858 176.021 123.4 173.053 115.954C171.992 113.294 171.187 111.274 170.997 110.514C170.671 109.212 172.958 107.269 175.821 104.839C179.294 101.89 183.614 98.2223 185.137 94.107C187.74 87.0758 180.692 69.5929 178.793 70.1474C178.65 70.2175 178.762 70.9318 178.942 72.0836C179.381 74.886 180.226 80.2785 178.793 85.285C176.771 92.3493 166.758 94.3556 162.004 94.4758H156.985ZM160.663 81.4108C158.138 90.2976 140.525 87.148 138.733 85.3587C139.529 86.9492 142.08 91.9059 150.027 91.9059C158.848 91.9059 161.709 85.0287 160.663 81.4108Z" fill="#2584A3"/>
<path fill-rule="evenodd" clip-rule="evenodd" d="M151.536 0.971347L18.0349 32.801L24.8085 65.7554L158.31 33.9258L151.536 0.971347ZM143.79 28.1969L140.667 28.9358L139.545 23.6729L132.914 15.6538L136.227 14.87L138.538 18.0156C139.209 18.9788 139.846 19.8888 140.567 20.8809L140.652 20.861C140.731 20.4725 140.81 20.0943 140.888 19.7214L140.889 19.718L140.89 19.7158L140.89 19.7151C141.057 18.9176 141.219 18.1444 141.365 17.3466L142.177 13.462L145.426 12.6932L142.667 22.934L143.79 28.1969ZM128.335 31.8537L131.458 31.1148L128.903 19.1326L133.334 18.0841L132.82 15.676L120.878 18.5018L121.391 20.9099L125.78 19.8715L128.335 31.8537ZM114.365 35.1593L111.243 35.8982L108.174 21.5078L113.618 20.2197C116.888 19.4459 119.711 19.8999 120.415 23.2013C120.875 25.357 119.979 26.9765 118.322 28.0418L123.227 33.0624L119.746 33.8862L115.379 29.2074L113.206 29.7216L114.365 35.1593ZM111.785 23.0605L112.721 27.4495L114.747 26.9702C116.751 26.4959 117.704 25.4545 117.377 23.9203C117.046 22.3666 115.816 22.1069 113.811 22.5812L111.785 23.0605ZM99.5241 30.7966C99.6694 29.1914 99.7858 27.4503 99.8512 25.7824L99.9567 25.7574C100.197 26.2073 100.438 26.6671 100.679 27.1286L100.679 27.1287L100.68 27.1298C101.215 28.1538 101.755 29.1861 102.309 30.1376L103.109 31.6008L99.3953 32.4795L99.5241 30.7966ZM95.721 39.5709L98.886 38.822L99.1963 34.8726L104.26 33.6743L106.144 37.1046L109.415 36.3307L101.324 23.1286L97.6531 23.9973L95.721 39.5709ZM87.9493 41.4098L84.8265 42.1488L81.758 27.7584L86.8853 26.5452C90.3456 25.7264 93.2444 26.2237 93.9691 29.6222C94.6689 32.9042 92.304 35.0142 88.9491 35.8081L86.8602 36.3023L87.9493 41.4098ZM85.3694 29.311L86.3757 34.0302L88.2536 33.5858C90.4058 33.0766 91.2616 31.9969 90.9096 30.3461C90.5535 28.676 89.294 28.3824 87.1418 28.8917L85.3694 29.311ZM62.2159 47.4989L66.035 46.5952L66.2285 39.083C66.2415 37.8968 66.2164 36.74 66.1914 35.5833L66.1914 35.5832L66.1914 35.5832L66.1914 35.5832L66.1914 35.5832L66.1914 35.5832L66.1914 35.5832L66.1914 35.5831L66.1914 35.583L66.2758 35.563C66.7017 36.625 67.1699 37.677 67.6632 38.7435L70.9302 45.4369L74.8125 44.5183L74.6347 29.4439L71.6807 30.1429L71.9349 37.4675C72.0216 39.0178 72.1167 40.6069 72.2159 42.2155L72.1104 42.2404C71.8699 41.7107 71.6322 41.1803 71.396 40.6533C70.9752 39.7143 70.5592 38.7861 70.1414 37.8919L66.8488 31.2862L64.1692 31.9202L63.8536 39.3797C63.8349 40.955 63.8245 42.569 63.8392 44.1976L63.7548 44.2175C63.4371 43.3724 63.1153 42.5411 62.7956 41.7151L62.7955 41.7149C62.5482 41.0762 62.3022 40.4406 62.0601 39.8041L59.3162 33.0685L56.1512 33.8174L62.2159 47.4989ZM57.569 48.5984L47.7576 50.92L44.6891 36.5296L54.2684 34.263L54.7819 36.6711L48.3253 38.1988L49.0335 41.5197L54.5194 40.2216L55.0329 42.6297L49.5469 43.9278L50.3669 47.773L57.0555 46.1903L57.569 48.5984ZM34.9073 53.9606L31.9533 54.6596L28.8848 40.2692L32.0709 39.5153L38.2431 46.1129L40.467 48.8507L40.5725 48.8257C40.4719 48.5107 40.3623 48.178 40.2488 47.8334L40.2488 47.8331C39.8361 46.5799 39.3719 45.1701 39.0991 43.8907L37.8733 38.1424L40.8273 37.4434L43.8958 51.8338L40.7309 52.5827L34.5756 45.9607L32.3347 43.2473L32.2292 43.2723C32.3311 43.5953 32.4392 43.9289 32.5497 44.2697C32.9588 45.5314 33.4003 46.8932 33.6774 48.1928L34.9073 53.9606Z" fill="#2584A3"/>
</svg>
