<svg width="264" height="352" viewBox="0 0 264 352" fill="none" xmlns="http://www.w3.org/2000/svg">
<path d="M142.484 324.873C142.413 324.606 142.14 324.446 141.873 324.516L137.521 325.662C137.254 325.732 137.094 326.005 137.165 326.272C137.235 326.54 137.508 326.699 137.775 326.629L141.644 325.611L142.662 329.479C142.732 329.746 143.005 329.906 143.272 329.835C143.54 329.765 143.699 329.492 143.629 329.225L142.484 324.873ZM128.432 349.252L142.432 325.252L141.568 324.748L127.568 348.748L128.432 349.252Z" fill="#2584A3"/>
<path d="M120.484 324.873C120.413 324.606 120.14 324.446 119.873 324.516L115.521 325.662C115.254 325.732 115.094 326.005 115.165 326.272C115.235 326.54 115.508 326.699 115.775 326.629L119.644 325.611L120.662 329.479C120.732 329.746 121.005 329.906 121.272 329.835C121.54 329.765 121.699 329.492 121.629 329.225L120.484 324.873ZM106.432 349.252L120.432 325.252L119.568 324.748L105.568 348.748L106.432 349.252Z" fill="#2584A3"/>
<path d="M75.202 220.948H70.834L71.59 220.612C71.366 220.206 70.876 219.576 70.498 219.142L69.532 219.52C69.91 219.94 70.302 220.542 70.54 220.948H66.396V221.76H75.202V220.948ZM67.502 225.372H74.012V224.588H67.502V225.372ZM74.012 222.74H67.502V223.538H74.012V222.74ZM68.342 227.206H73.06V228.942H68.342V227.206ZM67.348 229.74H74.082V226.408H67.348V229.74ZM65.766 221.438C65.388 220.878 64.618 219.982 63.988 219.31L63.218 219.786C63.834 220.472 64.604 221.424 64.968 221.998L65.766 221.438ZM65.794 225.932L65.626 225.96H64.03C64.828 225.022 65.878 223.58 66.466 222.768L65.78 222.446L65.612 222.516H62.714V223.37H64.954C64.338 224.224 63.526 225.33 63.19 225.652C62.938 225.918 62.728 226.002 62.518 226.058C62.63 226.282 62.84 226.758 62.896 227.01C62.994 226.898 63.372 226.814 63.722 226.814H65.248C64.8 228.998 63.778 230.538 62.448 231.392C62.644 231.532 62.98 231.896 63.134 232.106C63.848 231.616 64.464 230.944 64.982 230.062C66.088 231.574 67.824 231.868 70.624 231.868C72.136 231.868 73.886 231.826 75.188 231.756C75.244 231.462 75.384 230.986 75.538 230.762C74.11 230.874 72.08 230.944 70.624 230.944C68.076 230.944 66.326 230.734 65.402 229.278C65.808 228.396 66.13 227.346 66.312 226.128L65.794 225.932ZM79.36 219.352C78.66 221.466 77.54 223.566 76.294 224.924C76.476 225.176 76.756 225.75 76.84 225.974C77.316 225.442 77.764 224.812 78.198 224.126V232.078H79.192V222.334C79.626 221.466 80.004 220.542 80.312 219.618L79.36 219.352ZM86.08 228.368H83.714V226.198H86.08V228.368ZM87.452 223.874V223.076H85.296V221.494H84.442V223.076H82.342V223.874H84.442V225.414H82.916V229.138H86.906V225.414H85.296V223.874H87.452ZM81.768 230.3V221.046H87.928V230.3H81.768ZM80.802 220.136V232.05H81.768V231.224H87.928V231.938H88.922V220.136H80.802ZM98.694 222.852H101.396C101.116 224.7 100.682 226.268 100.01 227.556C99.366 226.268 98.918 224.742 98.596 223.09L98.694 222.852ZM103.384 222.852V221.872H99.016C99.24 221.116 99.45 220.29 99.618 219.464L98.582 219.282C98.204 221.382 97.574 223.37 96.636 224.826V224.336H94.732V221.284H97.154V220.276H90.756V221.284H93.724V229.082L92.296 229.39V223.384H91.344V229.6L90.518 229.768L90.714 230.804C92.45 230.412 94.928 229.824 97.224 229.264L97.126 228.326L94.732 228.872V225.316H96.3L96.23 225.414C96.454 225.568 96.888 225.918 97.056 226.1C97.378 225.652 97.686 225.134 97.966 224.574C98.33 226.058 98.792 227.402 99.408 228.55C98.624 229.67 97.602 230.538 96.23 231.196C96.426 231.42 96.72 231.868 96.832 232.106C98.148 231.42 99.184 230.552 99.982 229.502C100.724 230.594 101.648 231.476 102.796 232.078C102.964 231.812 103.286 231.406 103.51 231.196C102.306 230.636 101.354 229.74 100.598 228.578C101.508 227.052 102.068 225.176 102.446 222.852H103.384ZM106.128 221.27H115.816V222.726H116.824V220.556H114.346C114.612 220.276 114.892 219.94 115.144 219.59L114.08 219.366C113.87 219.702 113.52 220.178 113.226 220.556H111.49V219.282H110.454V220.556H108.788C108.606 220.192 108.27 219.73 107.962 219.38L107.024 219.604C107.248 219.898 107.486 220.248 107.668 220.556H105.162V222.726H106.128V221.27ZM108.34 222.46H113.59V223.188H108.34V222.46ZM114.584 223.734V221.9H107.388V223.734H114.584ZM112.848 226.394C113.142 226.114 113.492 225.736 113.828 225.33L113.128 225.022C112.946 225.316 112.596 225.806 112.33 226.128L112.848 226.394ZM108.858 226.422L109.46 226.044C109.32 225.764 108.984 225.344 108.676 225.064L108.074 225.386C108.368 225.708 108.662 226.128 108.816 226.422H107.22V224.924H110.454V226.422H108.858ZM114.822 226.422H111.448V224.924H114.822V226.422ZM117.132 229.04H111.448V228.326H116.278V227.668H111.448V227.024H115.83V224.336H106.254V227.024H110.454V227.668H105.89V228.326H110.454V229.04H104.882V229.726H117.132V229.04ZM105.806 232.078C106.52 231.686 107.178 230.972 107.584 230.3L106.646 230.006C106.254 230.678 105.582 231.308 104.91 231.672L105.806 232.078ZM108.872 230.356C108.998 230.888 109.11 231.574 109.138 231.98L110.118 231.882C110.076 231.476 109.95 230.804 109.796 230.3L108.872 230.356ZM111.714 230.37C111.966 230.874 112.218 231.532 112.302 231.952L113.31 231.77C113.212 231.364 112.932 230.706 112.68 230.23L111.714 230.37ZM114.43 230.342C115.046 230.86 115.788 231.616 116.138 232.092L117.146 231.77C116.768 231.252 116.012 230.538 115.396 230.034L114.43 230.342ZM129.424 221.522C129.298 223.202 129.144 223.902 128.906 224.126C128.78 224.238 128.654 224.252 128.416 224.252C128.15 224.252 127.464 224.238 126.764 224.182C126.932 224.434 127.058 224.84 127.086 225.134C127.8 225.176 128.486 225.176 128.85 225.148C129.256 225.12 129.522 225.05 129.774 224.784C130.138 224.392 130.32 223.426 130.488 221.004C130.516 220.85 130.53 220.556 130.53 220.556H125.7C125.784 220.192 125.84 219.814 125.896 219.422L124.832 219.282C124.538 221.718 123.81 223.65 122.326 224.812C122.578 224.966 123.026 225.302 123.208 225.47C124.272 224.518 125.014 223.202 125.476 221.522H129.424ZM122.466 220.934C121.906 220.416 120.8 219.786 119.904 219.408L119.33 220.15C120.226 220.57 121.318 221.256 121.85 221.76L122.466 220.934ZM121.738 224.56C121.178 224.098 120.044 223.496 119.148 223.146L118.588 223.902C119.498 224.308 120.604 224.952 121.164 225.428L121.738 224.56ZM121.528 226.716C120.758 228.298 119.75 230.118 119.036 231.196L119.918 231.868C120.688 230.58 121.612 228.844 122.298 227.374L121.528 226.716ZM129.144 226.73C128.64 227.682 127.912 228.494 127.03 229.138C126.162 228.452 125.476 227.64 124.986 226.73H129.144ZM129.886 225.75L129.69 225.792H123.082V226.73H124.706L124.02 226.968C124.566 228.018 125.294 228.928 126.176 229.698C124.958 230.398 123.558 230.874 122.116 231.126C122.312 231.35 122.55 231.784 122.634 232.05C124.202 231.714 125.7 231.168 127.002 230.356C128.094 231.126 129.368 231.7 130.782 232.064C130.922 231.784 131.216 231.35 131.454 231.14C130.124 230.86 128.92 230.384 127.884 229.74C129.06 228.802 129.998 227.598 130.558 226.044L129.886 225.75ZM142.458 226.044H136.62V224.63H142.458V226.044ZM136.578 228.41C136.606 228.046 136.62 227.71 136.62 227.374V226.94H142.458V228.41H136.578ZM145.118 222.068V221.088H137.978C138.188 220.584 138.37 220.052 138.524 219.534L137.488 219.282C137.32 219.884 137.11 220.486 136.872 221.088H132.938V222.068H136.424C135.556 223.874 134.296 225.526 132.658 226.632C132.854 226.842 133.176 227.22 133.316 227.444C134.17 226.842 134.926 226.1 135.584 225.302V227.346C135.584 228.676 135.458 230.216 134.296 231.336C134.52 231.49 134.898 231.924 135.024 232.148C135.85 231.378 136.27 230.328 136.452 229.306H142.458V230.762C142.458 230.972 142.374 231.042 142.136 231.056C141.884 231.056 141.044 231.07 140.106 231.028C140.26 231.322 140.414 231.742 140.456 232.05C141.646 232.05 142.43 232.036 142.892 231.868C143.34 231.7 143.48 231.392 143.48 230.762V223.692H136.704C137.012 223.174 137.292 222.614 137.558 222.068H145.118ZM149.794 224.602C149.22 224.154 148.072 223.552 147.19 223.202L146.63 223.958C147.54 224.364 148.646 224.994 149.22 225.47L149.794 224.602ZM147.974 231.882C148.8 230.594 149.78 228.858 150.508 227.388L149.752 226.702C148.954 228.284 147.848 230.118 147.106 231.182L147.974 231.882ZM147.386 220.192C148.31 220.612 149.444 221.284 150.004 221.76L150.606 220.892C150.018 220.444 148.87 219.814 147.946 219.436L147.386 220.192ZM159.132 231.588C158.698 230.51 157.648 228.844 156.654 227.626L155.828 228.018C156.262 228.564 156.682 229.194 157.074 229.824L152.65 230.314C153.518 229.138 154.386 227.654 155.114 226.17H159.076V225.176H155.394V222.684H158.488V221.69H155.394V219.282H154.358V221.69H151.376V222.684H154.358V225.176H150.76V226.17H153.882C153.182 227.738 152.258 229.222 151.95 229.642C151.6 230.146 151.32 230.482 151.054 230.552C151.18 230.832 151.348 231.35 151.404 231.588C151.782 231.406 152.37 231.308 157.564 230.664C157.83 231.182 158.068 231.658 158.208 232.05L159.132 231.588ZM162.142 221.228H171.9V222.348H172.908V220.346H167.784C167.588 219.996 167.294 219.576 167.084 219.268L166.048 219.52C166.202 219.772 166.384 220.052 166.552 220.346H161.162V222.348H162.142V221.228ZM168.932 223.664C168.47 224.21 167.868 224.658 167.14 225.008C166.244 224.826 165.334 224.672 164.41 224.518C164.676 224.252 164.97 223.972 165.264 223.664H168.932ZM172.936 226.464C171.774 226.072 170.234 225.666 168.526 225.302C169.198 224.854 169.744 224.322 170.178 223.664H173.118V222.81H170.64C170.752 222.572 170.836 222.348 170.92 222.082L169.912 221.844C169.8 222.194 169.66 222.516 169.492 222.81H166.048C166.37 222.432 166.678 222.04 166.93 221.676L165.922 221.368C165.628 221.816 165.25 222.32 164.83 222.81H160.924V223.664H164.074C163.598 224.182 163.122 224.644 162.688 225.036C163.71 225.176 164.69 225.358 165.642 225.54C164.382 225.862 162.828 226.044 160.91 226.128C161.078 226.38 161.218 226.716 161.316 227.024C163.878 226.856 165.866 226.534 167.378 225.89C169.198 226.31 170.78 226.73 171.928 227.164L172.936 226.464ZM164.284 228.956C163.542 229.754 162.212 230.482 160.966 230.944C161.218 231.098 161.624 231.462 161.82 231.658C163.038 231.112 164.452 230.244 165.306 229.292L164.284 228.956ZM168.568 229.474C169.856 230.076 171.438 231.042 172.222 231.728L172.978 230.972C172.152 230.3 170.542 229.376 169.268 228.816L168.568 229.474ZM167.476 227.766V226.618H166.454V227.766H160.784V228.648H166.454V232.064H167.476V228.648H173.244V227.766H167.476ZM180.188 227.248C180.006 226.548 179.572 225.372 179.152 224.476L178.354 224.756C178.522 225.134 178.69 225.596 178.858 226.03L176.436 226.366C177.598 225.106 178.746 223.538 179.698 221.956L178.788 221.41C178.48 222.012 178.102 222.614 177.738 223.188L176.114 223.342C176.94 222.278 177.738 220.948 178.396 219.66L177.43 219.24C176.814 220.78 175.764 222.376 175.47 222.768C175.162 223.188 174.91 223.482 174.658 223.538C174.77 223.79 174.924 224.266 174.98 224.476C175.176 224.378 175.498 224.308 177.08 224.126C176.534 224.896 176.058 225.484 175.82 225.736C175.372 226.24 175.036 226.576 174.742 226.632C174.854 226.912 175.022 227.416 175.064 227.626C175.358 227.458 175.806 227.36 179.138 226.856C179.222 227.136 179.278 227.374 179.32 227.598L180.188 227.248ZM175.414 228.228C175.246 229.348 174.98 230.58 174.63 231.448C174.868 231.518 175.302 231.658 175.498 231.77C175.82 230.902 176.142 229.586 176.31 228.396L175.414 228.228ZM176.982 228.326C177.136 229.292 177.304 230.58 177.332 231.42L178.242 231.224C178.186 230.384 178.018 229.124 177.822 228.144L176.982 228.326ZM178.578 228.046C178.886 228.9 179.236 230.034 179.376 230.776L180.23 230.496C180.076 229.768 179.712 228.648 179.376 227.794L178.578 228.046ZM182.834 230.902C182.064 230.902 181.924 230.79 181.924 230.258V225.568H185.494V226.268H186.544V220.024H180.538V221.06H185.494V224.546H180.86V230.244C180.86 231.546 181.308 231.868 182.736 231.868H185.62C186.95 231.868 187.272 231.294 187.412 229.25C187.104 229.18 186.67 228.998 186.418 228.816C186.334 230.566 186.222 230.902 185.536 230.902H182.834ZM196.176 228.55C195.266 229.222 194.328 229.88 193.656 230.314L193.614 229.768L191.738 230.118V226.156H193.474V225.246H191.738V223.734H192.942V222.824H189.736C190.324 222.208 190.856 221.48 191.318 220.724C192.116 221.494 193.026 222.432 193.502 223.02L194.104 222.32C193.586 221.732 192.564 220.766 191.738 219.982C191.822 219.856 191.878 219.73 191.948 219.59L191.136 219.296C190.506 220.64 189.428 221.928 188.364 222.782C188.49 223.02 188.714 223.538 188.77 223.748C189.022 223.538 189.26 223.314 189.512 223.062V223.734H190.87V225.246H188.798V226.156H190.87V230.258C190.002 230.426 189.176 230.566 188.56 230.65L188.798 231.588C190.114 231.322 191.906 230.986 193.614 230.622L194.034 231.21C194.79 230.636 195.672 229.95 196.498 229.292L196.176 228.55ZM188.938 227.024C189.148 227.836 189.372 228.914 189.442 229.6L190.226 229.404C190.128 228.718 189.89 227.668 189.68 226.842L188.938 227.024ZM192.9 229.446C193.124 228.788 193.348 227.752 193.586 226.926L192.844 226.702C192.732 227.444 192.508 228.564 192.312 229.25L192.9 229.446ZM194.104 226.492C194.65 227.052 195.336 227.836 195.658 228.326L196.386 227.766C196.05 227.29 195.35 226.534 194.79 226.002L194.104 226.492ZM195.784 222.642C195.91 222.25 196.008 221.788 196.134 221.34H199.06C198.99 221.718 198.906 222.18 198.808 222.642H195.784ZM201.37 225.442V224.518H199.382C199.676 223.244 199.984 221.704 200.166 220.57L199.466 220.458L199.298 220.514H196.344C196.442 220.136 196.526 219.744 196.61 219.394L195.63 219.282C195.336 220.612 194.888 222.376 194.538 223.468H198.64C198.556 223.832 198.472 224.182 198.402 224.518H193.67V225.442H197.03V230.986C197.03 231.126 196.988 231.168 196.82 231.182C196.666 231.182 196.162 231.196 195.588 231.168C195.728 231.434 195.868 231.812 195.896 232.078C196.68 232.092 197.226 232.064 197.548 231.924C197.912 231.756 197.996 231.504 197.996 230.986V225.442H201.37ZM199.172 228.354C199.732 227.906 200.488 227.206 201.062 226.548L200.362 225.96C199.914 226.534 199.144 227.36 198.598 227.822L199.172 228.354ZM198.332 229.054C199.172 229.684 200.278 230.608 200.81 231.182L201.398 230.468C200.852 229.908 199.732 229.04 198.892 228.438L198.332 229.054ZM75.426 250.84C74.628 250.196 73.312 249.342 72.094 248.684L71.548 249.286C72.738 249.972 73.998 250.826 74.768 251.484L75.426 250.84ZM70.344 251.022H71.352V248.684H75.132V247.858H71.352V246.696C72.542 246.584 73.662 246.416 74.544 246.22L73.886 245.52C72.276 245.884 69.322 246.122 66.858 246.234C66.956 246.43 67.068 246.752 67.096 246.976C68.118 246.948 69.252 246.878 70.344 246.78V247.858H66.494V248.684H69.672C68.776 249.594 67.404 250.406 66.172 250.826C66.396 251.008 66.662 251.33 66.802 251.568C68.034 251.064 69.406 250.154 70.344 249.118V251.022ZM72.598 252.646C72.696 252.226 72.808 251.778 72.878 251.358H67.684V252.17H69.14C68.902 253.64 68.328 254.732 66.592 255.32C66.802 255.502 67.082 255.852 67.18 256.09C69.168 255.348 69.84 254.004 70.106 252.17H71.814C71.702 252.632 71.59 253.066 71.464 253.43H73.718C73.606 254.466 73.466 254.928 73.298 255.096C73.2 255.194 73.074 255.208 72.836 255.208C72.612 255.208 71.954 255.194 71.282 255.138C71.422 255.362 71.52 255.698 71.548 255.95C72.234 255.992 72.878 255.992 73.228 255.964C73.592 255.95 73.858 255.88 74.068 255.656C74.39 255.376 74.544 254.676 74.712 253.038C74.726 252.912 74.74 252.646 74.74 252.646H72.598ZM65.668 247.452C65.304 246.878 64.604 245.982 64.002 245.296L63.204 245.744C63.792 246.444 64.52 247.41 64.842 247.998L65.668 247.452ZM65.654 251.932L65.472 251.96H64.016C64.786 251.022 65.822 249.58 66.382 248.754L65.696 248.446L65.528 248.516H62.7V249.37H64.898C64.31 250.224 63.498 251.33 63.176 251.666C62.952 251.918 62.728 252.002 62.518 252.058C62.63 252.282 62.84 252.758 62.91 253.01C63.008 252.898 63.372 252.814 63.722 252.814H65.08C64.646 254.97 63.736 256.51 62.476 257.378C62.686 257.518 63.036 257.882 63.162 258.092C63.834 257.588 64.45 256.888 64.926 255.992C66.018 257.56 67.782 257.84 70.624 257.84C72.15 257.84 73.9 257.812 75.202 257.728C75.244 257.448 75.384 256.986 75.538 256.762C74.124 256.888 72.108 256.944 70.638 256.944C67.978 256.944 66.214 256.72 65.318 255.152C65.668 254.298 65.934 253.276 66.116 252.128L65.654 251.932ZM82.832 246.598H86.682V247.732H84.19V250.07H82.832V246.598ZM85.002 250.07V248.46H86.682V250.07H85.002ZM81.768 250.896H87.788V255.082C87.788 255.222 87.732 255.278 87.564 255.292C87.424 255.292 86.892 255.292 86.318 255.278C86.43 255.516 86.556 255.866 86.598 256.118C87.424 256.118 87.97 256.118 88.292 255.964C88.656 255.81 88.74 255.572 88.74 255.082V250.07H87.634V245.786H81.908V250.07H80.844V256.118H81.768V250.896ZM85.772 254.018H83.756V252.534H85.772V254.018ZM86.584 251.806H82.958V255.306H83.756V254.746H86.584V251.806ZM79.668 247.452C79.304 246.878 78.604 245.982 78.002 245.296L77.204 245.73C77.778 246.43 78.506 247.41 78.842 247.998L79.668 247.452ZM79.654 251.932L79.472 251.96H78.016C78.786 251.022 79.808 249.58 80.382 248.754L79.696 248.446L79.528 248.516H76.7V249.37H78.898C78.31 250.224 77.498 251.33 77.176 251.666C76.952 251.918 76.728 252.002 76.518 252.058C76.63 252.282 76.84 252.758 76.91 253.01C77.008 252.898 77.372 252.814 77.722 252.814H79.08C78.646 254.97 77.736 256.51 76.476 257.378C76.686 257.518 77.036 257.882 77.162 258.092C77.834 257.588 78.45 256.888 78.926 255.978C80.018 257.56 81.782 257.84 84.624 257.84C86.15 257.84 87.9 257.812 89.216 257.728C89.258 257.448 89.398 256.986 89.552 256.762C88.138 256.888 86.108 256.944 84.638 256.944C81.992 256.944 80.214 256.72 79.318 255.152C79.668 254.298 79.934 253.276 80.116 252.128L79.654 251.932ZM94.396 252.59H99.576V254.116H94.396V252.59ZM99.576 247.9V249.286H94.396V247.9H99.576ZM94.396 250.182H99.576V251.694H94.396V250.182ZM103.174 254.116H100.612V247.9H102.852V246.92H100.612V245.324H99.576V246.92H94.396V245.324H93.374V246.92H91.204V247.9H93.374V254.116H90.812V255.082H103.188L103.174 254.116ZM95.068 255.334C94.088 256.006 92.184 256.804 90.672 257.252C90.896 257.476 91.204 257.826 91.358 258.05C92.856 257.546 94.746 256.748 95.992 255.978L95.068 255.334ZM98.036 256.062C99.646 256.664 101.312 257.434 102.292 258.022L103.23 257.322C102.152 256.748 100.374 255.978 98.736 255.404L98.036 256.062ZM107.766 245.338C106.982 247.466 105.68 249.552 104.308 250.896C104.504 251.134 104.798 251.666 104.896 251.904C105.372 251.414 105.848 250.854 106.282 250.224V258.05H107.276V248.698C107.836 247.732 108.34 246.682 108.732 245.646L107.766 245.338ZM111.756 257C110.776 257 110.594 256.818 110.594 256.006V251.022L112.638 250.224V254.97H113.59V249.846L115.83 248.978C115.802 250.798 115.718 252.94 115.578 254.256L116.432 254.508C116.656 252.856 116.796 250.182 116.838 248.166L116.88 247.97L116.11 247.732L115.914 247.886L113.59 248.782V245.31H112.638V249.146L110.594 249.944V246.696H109.6V250.336L107.822 251.036L108.214 251.946L109.6 251.414V256.006C109.6 257.546 110.09 257.938 111.742 257.938H115.424C116.95 257.938 117.272 257.322 117.454 255.376C117.16 255.32 116.754 255.152 116.502 254.984C116.39 256.622 116.236 257 115.396 257H111.756ZM131.048 248.712V247.704H125.196L126.176 247.284C125.966 246.71 125.546 245.87 125.154 245.212L124.174 245.604C124.524 246.248 124.944 247.144 125.112 247.704H119.008V248.712H122.788C122.634 251.904 122.284 255.502 118.7 257.28C118.966 257.476 119.288 257.84 119.456 258.106C122.088 256.706 123.124 254.41 123.572 251.946H128.57C128.332 255.096 128.066 256.44 127.646 256.804C127.478 256.93 127.31 256.958 126.988 256.958C126.61 256.958 125.644 256.944 124.636 256.86C124.846 257.14 124.986 257.56 125.014 257.882C125.938 257.938 126.862 257.952 127.352 257.924C127.898 257.882 128.22 257.784 128.556 257.434C129.102 256.888 129.382 255.376 129.648 251.442C129.676 251.288 129.69 250.938 129.69 250.938H123.726C123.824 250.196 123.88 249.454 123.922 248.712H131.048ZM135.794 250.602C135.22 250.154 134.072 249.552 133.19 249.202L132.63 249.958C133.54 250.364 134.646 250.994 135.22 251.47L135.794 250.602ZM133.974 257.882C134.8 256.594 135.78 254.858 136.508 253.388L135.752 252.702C134.954 254.284 133.848 256.118 133.106 257.182L133.974 257.882ZM133.386 246.192C134.31 246.612 135.444 247.284 136.004 247.76L136.606 246.892C136.018 246.444 134.87 245.814 133.946 245.436L133.386 246.192ZM145.132 257.588C144.698 256.51 143.648 254.844 142.654 253.626L141.828 254.018C142.262 254.564 142.682 255.194 143.074 255.824L138.65 256.314C139.518 255.138 140.386 253.654 141.114 252.17H145.076V251.176H141.394V248.684H144.488V247.69H141.394V245.282H140.358V247.69H137.376V248.684H140.358V251.176H136.76V252.17H139.882C139.182 253.738 138.258 255.222 137.95 255.642C137.6 256.146 137.32 256.482 137.054 256.552C137.18 256.832 137.348 257.35 137.404 257.588C137.782 257.406 138.37 257.308 143.564 256.664C143.83 257.182 144.068 257.658 144.208 258.05L145.132 257.588ZM157.844 246.738C157.732 249.566 157.592 250.658 157.368 250.91C157.242 251.05 157.13 251.078 156.906 251.078C156.682 251.078 156.094 251.064 155.45 251.008C155.618 251.274 155.716 251.652 155.744 251.932C156.36 251.96 156.976 251.96 157.326 251.932C157.704 251.904 157.97 251.806 158.208 251.526C158.544 251.092 158.698 249.832 158.852 246.29C158.852 246.15 158.866 245.842 158.866 245.842H152.048V246.738H154.932C154.862 247.424 154.764 248.068 154.582 248.67C154.05 248.208 153.322 247.606 152.734 247.144L152.188 247.732C152.846 248.278 153.7 249.02 154.218 249.552C153.756 250.49 153 251.246 151.754 251.764C151.964 251.932 152.244 252.268 152.356 252.506C154.932 251.358 155.632 249.258 155.884 246.738H157.844ZM154.372 252.52C154.946 253.164 155.576 254.06 155.87 254.606L156.556 254.13C156.248 253.584 155.604 252.744 155.016 252.114L154.372 252.52ZM149.836 247.158C149.64 246.654 149.276 245.884 148.912 245.31L148.03 245.618C148.366 246.22 148.744 247.018 148.898 247.522L149.836 247.158ZM151.53 247.606H146.602V248.474H151.53V247.606ZM151.194 249.496H146.966V250.322H151.194V249.496ZM146.966 252.198H151.194V251.358H146.966V252.198ZM150.228 254.088V256.426H147.848V254.088H150.228ZM151.124 253.234H146.966V257.924H147.848V257.28H151.124V253.234ZM151.908 256.72C152.384 255.95 152.692 254.676 152.874 253.668L152.132 253.444C151.964 254.396 151.628 255.628 151.152 256.384L151.908 256.72ZM154.722 256.93C154.246 256.93 154.148 256.86 154.148 256.524V253.122H153.238V256.524C153.238 257.49 153.518 257.77 154.624 257.77H156.444C157.41 257.77 157.662 257.322 157.76 255.418C157.508 255.362 157.13 255.222 156.934 255.068C156.892 256.692 156.808 256.93 156.346 256.93H154.722ZM157.522 253.136C158.012 254.074 158.502 255.32 158.698 256.076L159.496 255.768C159.3 255.026 158.768 253.808 158.264 252.884L157.522 253.136ZM172.95 248.474C172.768 247.858 172.278 246.864 171.844 246.108L171.032 246.43C171.48 247.186 171.928 248.194 172.11 248.838L172.95 248.474ZM169.254 246.794H167.84C167.686 246.374 167.42 245.8 167.154 245.38L166.328 245.618C166.524 245.968 166.734 246.416 166.888 246.794H165.012V247.62H169.254V246.794ZM163.5 247.102C163.304 246.626 162.87 245.87 162.478 245.324L161.75 245.632C162.128 246.206 162.548 246.976 162.744 247.452L163.5 247.102ZM163.542 254.074V256.426H162.016V254.074H163.542ZM164.34 253.234H161.218V257.924H162.016V257.266H164.34V253.234ZM161.232 252.184H164.34V251.344H161.232V252.184ZM161.232 250.322H164.34V249.496H161.232V250.322ZM160.77 248.516H164.662V247.662H160.77V248.516ZM166.188 255.32V254.004H168.148V255.32H166.188ZM168.148 251.96V253.248H166.188V251.96H168.148ZM172.166 251.176C171.886 252.1 171.508 252.954 171.074 253.752C170.934 252.814 170.822 251.666 170.738 250.42H173.202V249.524H170.682C170.612 248.208 170.57 246.794 170.556 245.31H169.632C169.66 246.794 169.702 248.208 169.772 249.524H168.33C168.498 249.062 168.68 248.46 168.848 247.9L167.994 247.746C167.91 248.25 167.728 248.992 167.574 249.524H166.706C166.65 249.034 166.496 248.306 166.314 247.76L165.558 247.872C165.698 248.39 165.838 249.034 165.894 249.524H164.746V250.42H169.814C169.926 252.17 170.094 253.682 170.318 254.928C169.926 255.474 169.478 255.978 169.03 256.426V251.204H165.334V257.056H166.188V256.076H168.148V256.454H169.016C168.652 256.804 168.288 257.126 167.896 257.392C168.092 257.532 168.372 257.784 168.526 257.952C169.254 257.42 169.94 256.748 170.57 255.978C170.934 257.252 171.438 258.008 172.138 258.022C172.6 258.022 173.062 257.518 173.328 255.572C173.16 255.488 172.796 255.236 172.614 255.026C172.53 256.174 172.376 256.832 172.152 256.846C171.816 256.832 171.508 256.16 171.284 255.026C171.97 254.004 172.558 252.842 172.978 251.582L172.166 251.176ZM177.766 245.338C176.982 247.466 175.68 249.552 174.308 250.896C174.504 251.134 174.798 251.666 174.896 251.904C175.372 251.414 175.848 250.854 176.282 250.224V258.05H177.276V248.698C177.836 247.732 178.34 246.682 178.732 245.646L177.766 245.338ZM181.756 257C180.776 257 180.594 256.818 180.594 256.006V251.022L182.638 250.224V254.97H183.59V249.846L185.83 248.978C185.802 250.798 185.718 252.94 185.578 254.256L186.432 254.508C186.656 252.856 186.796 250.182 186.838 248.166L186.88 247.97L186.11 247.732L185.914 247.886L183.59 248.782V245.31H182.638V249.146L180.594 249.944V246.696H179.6V250.336L177.822 251.036L178.214 251.946L179.6 251.414V256.006C179.6 257.546 180.09 257.938 181.742 257.938H185.424C186.95 257.938 187.272 257.322 187.454 255.376C187.16 255.32 186.754 255.152 186.502 254.984C186.39 256.622 186.236 257 185.396 257H181.756ZM191.29 245.366C190.618 247.522 189.512 249.65 188.308 251.05C188.476 251.302 188.756 251.848 188.854 252.1C189.316 251.554 189.75 250.924 190.17 250.224V258.064H191.164V248.362C191.584 247.48 191.948 246.556 192.256 245.632L191.29 245.366ZM195.378 246.92V248.194H193.432V246.92H195.378ZM193.432 250.336V248.978H195.378V250.336H193.432ZM196.204 246.094H192.466V258.036H193.432V251.148H196.204V246.094ZM197.898 250.336V248.978H199.956V250.336H197.898ZM199.956 246.92V248.194H197.898V246.92H199.956ZM200.936 246.094H197.044V251.148H199.956V256.692C199.956 256.972 199.858 257.056 199.592 257.07C199.326 257.084 198.36 257.084 197.366 257.056C197.492 257.322 197.66 257.784 197.716 258.05C199.032 258.05 199.844 258.036 200.32 257.868C200.782 257.7 200.936 257.378 200.936 256.706V246.094Z" fill="black" fill-opacity="0.54"/>
<path d="M32.8 184.264C34 183.544 35.088 182.68 36.016 181.672C36.976 182.632 38.16 183.512 39.408 184.264H32.8ZM40.128 185.64V184.664C40.928 185.112 41.728 185.48 42.512 185.768C42.736 185.368 43.2 184.776 43.536 184.472C41.136 183.752 38.448 182.232 36.88 180.664C37.024 180.472 37.152 180.264 37.296 180.056L35.904 179.432C34.384 181.784 31.488 183.544 28.512 184.456C28.88 184.824 29.296 185.4 29.504 185.832C30.304 185.544 31.072 185.208 31.824 184.808V185.64H35.168V187.576H29.888V188.92H35.168V192.488H29.152V193.848H42.88V192.488H36.752V188.92H42.112V187.576H36.752V185.64H40.128ZM39.104 192.424C39.648 191.704 40.352 190.616 40.96 189.608L39.52 189.08C39.184 189.96 38.512 191.176 37.968 191.944L39.104 192.424ZM31.104 189.56C31.68 190.456 32.304 191.656 32.528 192.408L33.824 191.848C33.568 191.096 32.928 189.928 32.32 189.08L31.104 189.56ZM49.904 181.512V182.648H46.928V181.512H49.904ZM46.928 185V183.752H49.904V185H46.928ZM51.296 180.264H45.456V194.248H46.928V186.216H51.296V180.264ZM54.032 185.032V183.752H57.12V185.032H54.032ZM57.12 181.512V182.648H54.032V181.512H57.12ZM58.64 180.264H52.608V186.232H57.12V192.344C57.12 192.632 57.024 192.728 56.704 192.744C56.384 192.744 55.264 192.76 54.208 192.712C54.432 193.128 54.688 193.832 54.736 194.248C56.224 194.248 57.2 194.216 57.824 193.976C58.432 193.72 58.64 193.272 58.64 192.344V180.264ZM69.984 190.344V191.576H65.888V190.344H69.984ZM71.296 192.648V189.272H64.512V193.384H65.888V192.648H71.296ZM74.512 187.256H61.504V194.264H62.96V188.488H73.008V192.792C73.008 192.984 72.928 193.048 72.72 193.048C72.544 193.064 71.744 193.064 71.072 193.032C71.248 193.352 71.456 193.8 71.536 194.136C72.608 194.152 73.344 194.136 73.84 193.96C74.336 193.768 74.512 193.496 74.512 192.792V187.256ZM71.312 185.432H64.752V184.248H71.312V185.432ZM63.28 183.208V186.488H72.88V183.208H63.28ZM69.024 181.176C68.864 180.664 68.608 180.024 68.4 179.512L66.896 179.864C67.04 180.264 67.2 180.744 67.344 181.176H60.992V182.44H74.944V181.176H69.024ZM80.848 182.68C81.648 183.256 82.592 184.072 83.088 184.696C82.576 185.4 81.856 185.928 80.928 186.328C81.232 186.536 81.76 187.096 81.936 187.352C84.16 186.216 85.296 184.408 85.712 181.464H87.456C87.328 184.248 87.2 185.32 86.992 185.592C86.864 185.752 86.72 185.768 86.496 185.768C86.224 185.768 85.648 185.768 85.008 185.704C85.2 186.04 85.344 186.568 85.376 186.936C86.08 186.968 86.768 186.984 87.152 186.936C87.6 186.872 87.904 186.76 88.176 186.408C88.496 186.008 88.64 185 88.768 182.552C89.376 183.56 89.952 184.76 90.128 185.576L91.408 185.016C91.152 184.072 90.416 182.664 89.664 181.608L88.8 181.976L88.848 180.776C88.848 180.584 88.864 180.2 88.864 180.2H81.856V181.464H84.304C84.192 182.28 84.016 182.984 83.744 183.608C83.2 183.032 82.336 182.344 81.6 181.832L80.848 182.68ZM87.488 189.24C88.016 188.808 88.672 188.184 89.28 187.528L87.84 187.032C87.488 187.544 86.864 188.28 86.368 188.776L87.488 189.24ZM77.872 187.752C78.896 186.808 80.016 185.688 80.976 184.664L80.208 183.64C79.12 184.76 77.84 185.944 76.944 186.632L77.872 187.752ZM80.896 180.696C80.368 180.312 79.312 179.8 78.528 179.528L77.792 180.52C78.592 180.84 79.632 181.384 80.128 181.784L80.896 180.696ZM79.856 182.664C79.312 182.264 78.24 181.736 77.44 181.416L76.672 182.44C77.488 182.776 78.544 183.352 79.056 183.784L79.856 182.664ZM81.168 190.712C80.176 191.544 78.272 192.36 76.704 192.744C77.04 193.016 77.472 193.544 77.696 193.912C79.28 193.368 81.232 192.328 82.32 191.256L81.168 190.712ZM91.056 190.616V189.32H84.72V186.936H83.216V189.32H80.624L81.712 188.632C81.36 188.136 80.64 187.432 80.064 186.936L78.928 187.608C79.488 188.12 80.16 188.824 80.48 189.32H76.976V190.616H83.216V194.216H84.72V190.616H86.448L85.584 191.368C87.152 192.088 89.264 193.16 90.32 193.832L91.36 192.824C90.304 192.2 88.336 191.256 86.832 190.616H91.056ZM94.688 181.96H105.248V183.56H106.704V180.984H104.064C104.336 180.68 104.624 180.312 104.912 179.928L103.344 179.64C103.136 180.024 102.784 180.568 102.464 180.984H100.72V179.56H99.2V180.984H97.568C97.36 180.568 97.008 180.04 96.688 179.656L95.312 179.944C95.536 180.264 95.792 180.648 95.968 180.984H93.296V183.56H94.688V181.96ZM97.2 183.288H102.72V184.008H97.2V183.288ZM104.128 184.712V182.584H95.84V184.712H104.128ZM102.256 186.152C102.08 186.472 101.696 187 101.408 187.368L102.112 187.704C102.432 187.4 102.832 187 103.232 186.536L102.256 186.152ZM97.616 187.704L98.352 187.288C98.208 186.984 97.856 186.504 97.536 186.184L96.704 186.616C96.976 186.936 97.28 187.384 97.44 187.704H95.92V186.072H99.2V187.704H97.616ZM104.144 187.704H100.656V186.072H104.144V187.704ZM107.024 190.664H100.656V189.976H106.096V189.112H100.656V188.472H105.584V185.304H94.56V188.472H99.2V189.112H94.128V189.976H99.2V190.664H92.992V191.592H107.024V190.664ZM94.272 194.264C95.056 193.8 95.808 193 96.288 192.232L94.912 191.816C94.48 192.568 93.696 193.288 92.96 193.688L94.272 194.264ZM97.472 192.28C97.616 192.872 97.728 193.672 97.776 194.152L99.184 194.008C99.136 193.528 98.976 192.76 98.816 192.184L97.472 192.28ZM100.688 192.296C100.96 192.856 101.216 193.624 101.312 194.104L102.768 193.88C102.672 193.4 102.352 192.648 102.064 192.104L100.688 192.296ZM103.712 192.264C104.4 192.872 105.248 193.736 105.616 194.28L107.104 193.864C106.656 193.256 105.808 192.44 105.104 191.848L103.712 192.264ZM116.288 191.992V186.04H122.064V184.552H116.288V179.8H114.688V191.992H108.848V193.496H123.168V191.992H116.288ZM136.688 181.704V183.352H127.744V181.704H136.688ZM138.176 184.712V180.344H126.256V185.016C126.256 187.528 126.112 191.048 124.528 193.512C124.912 193.656 125.568 194.04 125.856 194.28C127.504 191.704 127.744 187.704 127.744 185.016V184.712H138.176ZM130.512 190.008V191.224H136.464V190.008H134.192V187.992H136.144V186.776H134.192V185.096H132.832V186.776H130.928V187.992H132.832V190.008H130.512ZM137.04 186.072V192.312H129.936V186.088H128.496V193.624H137.04V194.248H138.464V186.072H137.04ZM152.848 182.344C152.72 183.96 152.544 184.68 152.32 184.888C152.176 185.016 152.032 185.032 151.76 185.032C151.456 185.032 150.704 185.016 149.952 184.952C150.176 185.336 150.352 185.912 150.384 186.328C151.216 186.36 152 186.36 152.416 186.312C152.928 186.28 153.248 186.184 153.584 185.832C153.984 185.384 154.192 184.248 154.384 181.576C154.4 181.384 154.416 180.984 154.416 180.984H149.056C149.136 180.584 149.2 180.168 149.264 179.752L147.744 179.56C147.424 182.296 146.576 184.488 144.928 185.784C145.28 185.992 145.952 186.472 146.192 186.728C147.36 185.672 148.192 184.184 148.736 182.344H152.848ZM145.264 181.368C144.64 180.792 143.344 180.088 142.336 179.672L141.52 180.76C142.544 181.224 143.792 182.008 144.416 182.584L145.264 181.368ZM144.4 185.544C143.744 185.016 142.432 184.328 141.408 183.928L140.624 185.048C141.664 185.48 142.944 186.216 143.568 186.776L144.4 185.544ZM144 188.008C143.12 189.832 141.968 191.848 141.152 193.08L142.432 194.04C143.328 192.552 144.336 190.648 145.12 188.984L144 188.008ZM152.4 188.312C151.888 189.224 151.2 190.008 150.352 190.648C149.504 189.976 148.8 189.192 148.304 188.312H152.4ZM153.488 186.904L153.216 186.968H145.888V188.312H147.808L146.896 188.632C147.472 189.704 148.208 190.648 149.104 191.464C147.824 192.168 146.336 192.632 144.752 192.904C145.024 193.24 145.36 193.848 145.488 194.248C147.248 193.864 148.896 193.288 150.32 192.424C151.52 193.24 152.928 193.848 154.48 194.248C154.688 193.832 155.12 193.224 155.456 192.904C154.048 192.616 152.736 192.136 151.616 191.496C152.864 190.44 153.856 189.08 154.464 187.32L153.488 186.904ZM167.712 187.256H161.472V185.88H167.712V187.256ZM161.424 189.896C161.456 189.512 161.472 189.128 161.472 188.776V188.504H167.712V189.896H161.424ZM171.008 182.968V181.576H163.04C163.264 181.032 163.44 180.472 163.616 179.928L162.096 179.576C161.92 180.232 161.696 180.904 161.424 181.576H157.04V182.968H160.8C159.808 184.888 158.448 186.664 156.688 187.848C156.992 188.136 157.44 188.664 157.664 189C158.528 188.392 159.296 187.672 159.984 186.856V188.744C159.984 190.232 159.856 191.976 158.512 193.208C158.8 193.416 159.392 194.04 159.584 194.376C160.528 193.512 161.024 192.344 161.264 191.144H167.712V192.52C167.712 192.76 167.632 192.84 167.36 192.84C167.088 192.856 166.128 192.856 165.184 192.808C165.376 193.208 165.6 193.848 165.648 194.248C166.976 194.248 167.872 194.248 168.432 194.008C169.008 193.784 169.168 193.336 169.168 192.536V184.568H161.6C161.904 184.056 162.176 183.512 162.448 182.968H171.008ZM181.04 181.992C180.864 181.32 180.496 180.264 180.192 179.464L178.72 179.832C179.008 180.648 179.36 181.736 179.488 182.44L181.04 181.992ZM186.48 182.504H173.568V184.008H186.48V182.504ZM178.688 191.16C178.416 189.384 177.792 186.76 177.168 184.68L175.664 185.048C176.24 187.096 176.88 189.8 177.104 191.56L178.688 191.16ZM182.224 192.12C183.008 190.168 183.904 187.368 184.528 185.032L182.848 184.712C182.368 187 181.456 190.136 180.624 192.12H172.88V193.624H187.136V192.12H182.224ZM198.8 189.432C198.272 190.216 197.616 190.824 196.768 191.32C195.68 191.048 194.56 190.776 193.408 190.552C193.712 190.2 194.016 189.832 194.32 189.432H198.8ZM199.856 187.032C199.744 187.448 199.616 187.816 199.472 188.168H195.216C195.472 187.768 195.696 187.4 195.904 187.016H196.704V184.04H197.84L197.152 184.968C199.024 185.688 201.552 186.792 202.816 187.48L203.52 186.392C202.208 185.704 199.696 184.68 197.888 184.04H202.992V182.792H196.704V181.32C198.48 181.16 200.16 180.952 201.504 180.648L200.4 179.592C198.048 180.104 193.712 180.408 190.096 180.488C190.208 180.792 190.368 181.32 190.4 181.64C191.936 181.624 193.6 181.56 195.232 181.448V182.792H188.976V184.04H193.6C192.256 185.112 190.368 185.992 188.576 186.472C188.88 186.728 189.296 187.272 189.488 187.64C191.584 186.984 193.76 185.72 195.232 184.232V186.776L194.432 186.584C194.16 187.08 193.84 187.64 193.456 188.168H188.8V189.432H192.528C192.016 190.104 191.472 190.744 190.976 191.256C192.32 191.528 193.6 191.816 194.832 192.136C193.344 192.568 191.504 192.792 189.232 192.904C189.456 193.24 189.696 193.8 189.808 194.248C192.928 194.024 195.312 193.592 197.104 192.712C198.928 193.224 200.512 193.736 201.696 194.184L203.024 193.112C201.824 192.696 200.304 192.248 198.608 191.784C199.408 191.16 200.032 190.392 200.528 189.432H203.216V188.168H201.072C201.152 187.928 201.232 187.672 201.312 187.416L199.856 187.032ZM208.08 182.408V188.712H206.48V182.408H208.08ZM209.344 181.032H205.216V191.56H206.48V190.088H209.344V181.032ZM218.112 186.376H210.88V189.768C210.88 190.968 210.816 192.392 210.064 193.448C210.368 193.608 210.976 194.088 211.216 194.328C212.096 193.112 212.256 191.24 212.256 189.8V187.464H216.688V189.8C215.056 190.184 213.424 190.536 212.304 190.776L212.736 191.896C213.888 191.624 215.296 191.272 216.688 190.92V192.712C216.688 192.904 216.608 192.968 216.384 192.984C216.192 192.984 215.424 192.984 214.704 192.968C214.864 193.304 215.008 193.784 215.056 194.136C216.192 194.136 216.976 194.136 217.472 193.944C217.952 193.752 218.112 193.432 218.112 192.728V186.376ZM212.432 188.744C213.52 189.016 214.896 189.496 215.616 189.896L216.16 188.936C215.424 188.536 214.032 188.088 212.96 187.88L212.432 188.744ZM212.08 184.392C212.624 183.784 213.184 183.144 213.728 182.44H216.512L215.52 183.128C215.824 183.432 216.16 183.768 216.48 184.136L212.08 184.392ZM219.296 181.192H214.64C214.912 180.776 215.2 180.344 215.472 179.928L214 179.416C213.696 180.008 213.328 180.632 212.96 181.192H209.936V182.44H212.08C211.616 183.048 211.232 183.512 211.024 183.704C210.576 184.232 210.224 184.536 209.888 184.616C210.032 185 210.256 185.672 210.336 185.96C210.832 185.768 211.568 185.704 217.52 185.304C217.76 185.624 217.968 185.912 218.128 186.136L219.264 185.304C218.704 184.52 217.552 183.32 216.624 182.44H219.296V181.192ZM227.344 189.032H228.656L229.136 183.144L229.184 181.032H226.832L226.88 183.144L227.344 189.032ZM228 193.112C228.8 193.112 229.456 192.552 229.456 191.72C229.456 190.888 228.8 190.312 228 190.312C227.2 190.312 226.544 190.888 226.544 191.72C226.544 192.552 227.2 193.112 228 193.112Z" fill="#222222"/>
<ellipse cx="136" cy="80" rx="103" ry="75" fill="white"/>
<path fill-rule="evenodd" clip-rule="evenodd" d="M83.0063 141.027C80.3402 135.004 78.2993 114.802 79.2343 106.166C79.2814 105.731 79.0562 105.316 78.6707 105.11C73.8455 102.527 66.9186 95.8072 65.0199 92.15C62.9166 88.0986 62.2379 62.5503 65.02 62.5503C65.4688 62.5503 66.01 65.5577 66.7095 69.4442C67.8662 75.8714 69.4556 84.7025 71.7745 86.3106C71.8941 86.3935 72.0177 86.4794 72.1453 86.5679C75.8363 89.1305 82.7497 93.9302 86.8628 94.4328C82.1488 91.7384 78.8309 86.8145 78.441 80.9983C77.8219 71.763 84.8199 63.7752 94.0714 63.1572C103.323 62.5392 111.325 69.5249 111.944 78.7603C112.389 85.4042 108.892 91.4024 103.451 94.4756H108.468C113.222 94.3555 123.235 92.3492 125.257 85.2849C126.69 80.2784 125.845 74.8859 125.406 72.0835C125.226 70.9317 125.114 70.2174 125.257 70.1473C127.156 69.5928 134.204 87.0756 131.602 94.1068C130.078 98.2222 125.759 101.89 122.285 104.839C119.423 107.269 117.135 109.212 117.461 110.514C117.651 111.273 118.457 113.294 119.517 115.954C122.485 123.4 127.452 135.858 126.521 139.708C125.51 143.889 98.2306 142.409 83.0063 141.027ZM107.127 81.4113C104.602 90.2981 86.9896 87.1485 85.1972 85.3592C85.9938 86.9497 88.5442 91.9063 96.4916 91.9063C105.312 91.9063 108.174 85.0292 107.127 81.4113Z" fill="#2584A3"/>
<path fill-rule="evenodd" clip-rule="evenodd" d="M146.403 94.4758C151.845 91.4027 155.343 85.4042 154.897 78.7598C154.278 69.5244 146.276 62.5387 137.025 63.1567C127.773 63.7747 120.775 71.7625 121.394 80.9979C121.787 86.8496 125.143 91.7982 129.903 94.4816C126.86 94.5452 125.6 95.1325 123.065 96.3139C122.562 96.5487 122.008 96.8069 121.379 97.0892C116.697 99.1926 112.515 105.566 109.23 112.597C107.237 116.865 112.104 123.505 115.943 126.911C117.554 128.341 118.983 129.2 119.649 129.076C120.207 129.208 119.185 125.758 118.209 122.467C117.551 120.247 116.915 118.099 116.799 117.169C116.603 115.607 118.449 113.219 120.241 111.149C120.898 110.39 122.287 110.998 122.245 112.001C121.862 121.027 123.557 135.599 125.96 141.027C141.184 142.409 168.463 143.889 169.474 139.709C170.405 135.858 165.439 123.4 162.471 115.954C161.41 113.294 160.605 111.274 160.415 110.514C160.089 109.212 162.376 107.269 165.239 104.839C168.712 101.89 173.032 98.2223 174.555 94.107C177.158 87.0758 170.11 69.5929 168.211 70.1474C168.068 70.2175 168.179 70.9318 168.36 72.0836C168.799 74.886 169.643 80.2785 168.211 85.285C166.189 92.3493 156.176 94.3556 151.422 94.4758H146.403ZM150.081 81.4108C147.556 90.2976 129.943 87.148 128.151 85.3587C128.947 86.9492 131.498 91.9059 139.445 91.9059C148.266 91.9059 151.127 85.0287 150.081 81.4108Z" fill="#2584A3"/>
<path fill-rule="evenodd" clip-rule="evenodd" d="M189.985 94.4758C195.427 91.4027 198.924 85.4042 198.479 78.7598C197.86 69.5244 189.858 62.5387 180.607 63.1567C171.355 63.7747 164.357 71.7625 164.976 80.9979C165.369 86.8496 168.725 91.7982 173.485 94.4816C170.442 94.5452 169.182 95.1325 166.647 96.3139C166.144 96.5487 165.59 96.8069 164.961 97.0892C160.279 99.1926 156.097 105.566 152.812 112.597C150.819 116.865 155.686 123.505 159.525 126.911C161.136 128.341 162.565 129.2 163.231 129.076C163.789 129.208 162.767 125.758 161.791 122.467C161.133 120.247 160.497 118.099 160.381 117.169C160.185 115.607 162.031 113.219 163.823 111.149C164.48 110.39 165.869 110.998 165.827 112.001C165.444 121.027 167.139 135.599 169.542 141.027C184.766 142.409 212.045 143.889 213.056 139.709C213.987 135.858 209.021 123.4 206.053 115.954C204.992 113.294 204.187 111.274 203.997 110.514C203.671 109.212 205.958 107.269 208.821 104.839C212.294 101.89 216.614 98.2223 218.137 94.107C220.74 87.0758 213.692 69.5929 211.793 70.1474C211.65 70.2175 211.762 70.9318 211.942 72.0836C212.381 74.886 213.226 80.2785 211.793 85.285C209.771 92.3493 199.758 94.3556 195.004 94.4758H189.985ZM193.663 81.4108C191.138 90.2976 173.525 87.148 171.733 85.3587C172.529 86.9492 175.08 91.9059 183.027 91.9059C191.848 91.9059 194.709 85.0287 193.663 81.4108Z" fill="#2584A3"/>
<path fill-rule="evenodd" clip-rule="evenodd" d="M184.536 0.971347L51.0349 32.801L57.8085 65.7554L191.31 33.9258L184.536 0.971347ZM176.79 28.1969L173.667 28.9358L172.545 23.6729L165.914 15.6538L169.227 14.87L171.538 18.0156C172.209 18.9788 172.846 19.8888 173.567 20.8809L173.652 20.861C173.731 20.4725 173.81 20.0943 173.888 19.7214L173.889 19.718L173.89 19.7158L173.89 19.7151C174.057 18.9176 174.219 18.1444 174.365 17.3466L175.177 13.462L178.426 12.6932L175.667 22.934L176.79 28.1969ZM161.335 31.8537L164.458 31.1148L161.903 19.1326L166.334 18.0841L165.82 15.676L153.878 18.5018L154.391 20.9099L158.78 19.8715L161.335 31.8537ZM147.365 35.1593L144.243 35.8982L141.174 21.5078L146.618 20.2197C149.888 19.4459 152.711 19.8999 153.415 23.2013C153.875 25.357 152.979 26.9765 151.322 28.0418L156.227 33.0624L152.746 33.8862L148.379 29.2074L146.206 29.7216L147.365 35.1593ZM144.785 23.0605L145.721 27.4495L147.747 26.9702C149.751 26.4959 150.704 25.4545 150.377 23.9203C150.046 22.3666 148.816 22.1069 146.811 22.5812L144.785 23.0605ZM132.524 30.7966C132.669 29.1914 132.786 27.4503 132.851 25.7824L132.957 25.7574C133.197 26.2073 133.438 26.6671 133.679 27.1286L133.679 27.1287L133.68 27.1298C134.215 28.1538 134.755 29.1861 135.309 30.1376L136.109 31.6008L132.395 32.4795L132.524 30.7966ZM128.721 39.5709L131.886 38.822L132.196 34.8726L137.26 33.6743L139.144 37.1046L142.415 36.3307L134.324 23.1286L130.653 23.9973L128.721 39.5709ZM120.949 41.4098L117.827 42.1488L114.758 27.7584L119.885 26.5452C123.346 25.7264 126.244 26.2237 126.969 29.6222C127.669 32.9042 125.304 35.0142 121.949 35.8081L119.86 36.3023L120.949 41.4098ZM118.369 29.311L119.376 34.0302L121.254 33.5858C123.406 33.0766 124.262 31.9969 123.91 30.3461C123.553 28.676 122.294 28.3824 120.142 28.8917L118.369 29.311ZM95.2159 47.4989L99.035 46.5952L99.2285 39.083C99.2415 37.8968 99.2164 36.74 99.1914 35.5833L99.1914 35.5832L99.1914 35.5832L99.1914 35.5832L99.1914 35.5832L99.1914 35.5832L99.1914 35.5832L99.1914 35.5831L99.1914 35.583L99.2758 35.563C99.7017 36.625 100.17 37.677 100.663 38.7435L103.93 45.4369L107.813 44.5183L107.635 29.4439L104.681 30.1429L104.935 37.4675C105.022 39.0178 105.117 40.6069 105.216 42.2155L105.11 42.2404C104.87 41.7107 104.632 41.1803 104.396 40.6533C103.975 39.7143 103.559 38.7861 103.141 37.8919L99.8488 31.2862L97.1692 31.9202L96.8536 39.3797C96.8349 40.955 96.8245 42.569 96.8392 44.1976L96.7548 44.2175C96.4371 43.3724 96.1153 42.5411 95.7956 41.7151L95.7955 41.7149C95.5482 41.0762 95.3022 40.4406 95.0601 39.8041L92.3162 33.0685L89.1512 33.8174L95.2159 47.4989ZM90.569 48.5984L80.7576 50.92L77.6891 36.5296L87.2684 34.263L87.7819 36.6711L81.3253 38.1988L82.0335 41.5197L87.5194 40.2216L88.0329 42.6297L82.5469 43.9278L83.3669 47.773L90.0555 46.1903L90.569 48.5984ZM67.9073 53.9606L64.9533 54.6596L61.8848 40.2692L65.0709 39.5153L71.2431 46.1129L73.467 48.8507L73.5725 48.8257C73.4719 48.5107 73.3623 48.178 73.2488 47.8334L73.2488 47.8331C72.8361 46.5799 72.3719 45.1701 72.0991 43.8907L70.8733 38.1424L73.8273 37.4434L76.8958 51.8338L73.7309 52.5827L67.5756 45.9607L65.3347 43.2473L65.2292 43.2723C65.3311 43.5953 65.4392 43.9289 65.5497 44.2697C65.9588 45.5314 66.4003 46.8932 66.6774 48.1928L67.9073 53.9606Z" fill="#2584A3"/>
</svg>
