<svg width="70" height="70" viewBox="0 0 70 70" fill="none" xmlns="http://www.w3.org/2000/svg">
<path d="M22.32 19.675H46.54V23.315H49.06V17.89H42.865C43.53 17.19 44.23 16.35 44.86 15.475L42.2 14.915C41.675 15.755 40.8 16.945 40.065 17.89H35.725V14.705H33.135V17.89H28.97C28.515 16.98 27.675 15.825 26.905 14.95L24.56 15.51C25.12 16.245 25.715 17.12 26.17 17.89H19.905V23.315H22.32V19.675ZM27.85 22.65H40.975V24.47H27.85V22.65ZM43.46 25.835V21.25H25.47V25.835H43.46ZM39.12 32.485C39.855 31.785 40.73 30.84 41.57 29.825L39.82 29.055C39.365 29.79 38.49 31.015 37.825 31.82L39.12 32.485ZM29.145 32.555L30.65 31.61C30.3 30.91 29.46 29.86 28.69 29.16L27.185 29.965C27.92 30.77 28.655 31.82 29.04 32.555H25.05V28.81H33.135V32.555H29.145ZM44.055 32.555H35.62V28.81H44.055V32.555ZM49.83 39.1H35.62V37.315H47.695V35.67H35.62V34.06H46.575V27.34H22.635V34.06H33.135V35.67H21.725V37.315H33.135V39.1H19.205V40.815H49.83V39.1ZM21.515 46.695C23.3 45.715 24.945 43.93 25.96 42.25L23.615 41.515C22.635 43.195 20.955 44.77 19.275 45.68L21.515 46.695ZM29.18 42.39C29.495 43.72 29.775 45.435 29.845 46.45L32.295 46.205C32.19 45.19 31.875 43.51 31.49 42.25L29.18 42.39ZM36.285 42.425C36.915 43.685 37.545 45.33 37.755 46.38L40.275 45.925C40.03 44.91 39.33 43.265 38.7 42.075L36.285 42.425ZM43.075 42.355C44.615 43.65 46.47 45.54 47.345 46.73L49.865 45.925C48.92 44.63 47.03 42.845 45.49 41.585L43.075 42.355Z" fill="white"/>
<circle cx="35" cy="32" r="24.5" stroke="white" stroke-width="3"/>
</svg>
