<svg width="42" height="42" viewBox="0 0 42 42" fill="none" xmlns="http://www.w3.org/2000/svg">
<path d="M21.5896 19.075C17.6171 18.0425 16.3396 16.975 16.3396 15.3125C16.3396 13.405 18.1071 12.075 21.0646 12.075C24.1796 12.075 25.3346 13.5625 25.4396 15.75H29.3071C29.1846 12.74 27.3471 9.975 23.6896 9.0825V5.25H18.4396V9.03C15.0446 9.765 12.3146 11.97 12.3146 15.3475C12.3146 19.39 15.6571 21.4025 20.5396 22.575C24.9146 23.625 25.7896 25.165 25.7896 26.7925C25.7896 28 24.9321 29.925 21.0646 29.925C17.4596 29.925 16.0421 28.315 15.8496 26.25H11.9996C12.2096 30.0825 15.0796 32.235 18.4396 32.9525V36.75H23.6896V32.9875C27.1021 32.34 29.8146 30.3625 29.8146 26.775C29.8146 21.805 25.5621 20.1075 21.5896 19.075Z" fill="#D4AF37"/>
</svg>