<svg width="31" height="31" viewBox="0 0 31 31" fill="none" xmlns="http://www.w3.org/2000/svg">
<path d="M27.6786 0.1875H3.32143C2.44053 0.1875 1.59571 0.533202 0.972824 1.14856C0.349935 1.76391 0 2.59851 0 3.46875L0 27.5312C0 28.4015 0.349935 29.2361 0.972824 29.8514C1.59571 30.4668 2.44053 30.8125 3.32143 30.8125H12.8186V20.4007H8.45926V15.5H12.8186V11.7648C12.8186 7.51631 15.3789 5.16953 19.3003 5.16953C21.1783 5.16953 23.1421 5.50039 23.1421 5.50039V9.67031H20.9783C18.8463 9.67031 18.1814 10.9773 18.1814 12.3179V15.5H22.9407L22.1795 20.4007H18.1814V30.8125H27.6786C28.5595 30.8125 29.4043 30.4668 30.0272 29.8514C30.6501 29.2361 31 28.4015 31 27.5312V3.46875C31 2.59851 30.6501 1.76391 30.0272 1.14856C29.4043 0.533202 28.5595 0.1875 27.6786 0.1875Z" fill="white"/>
</svg>
