<svg width="190" height="48" viewBox="0 0 190 48" fill="none" xmlns="http://www.w3.org/2000/svg">
<path d="M90.128 22.056V19.104H80.696C80.936 16.872 80.96 14.664 80.984 12.696H77.864C77.84 14.664 77.864 16.848 77.624 19.104H68.888V22.056H77.144C76.208 26.184 73.928 30.168 68.432 32.616C69.272 33.216 70.112 34.248 70.568 35.04C75.656 32.592 78.248 28.848 79.544 24.84C81.416 29.472 84.2 32.976 88.544 35.016C89 34.2 89.936 32.928 90.656 32.328C86.168 30.504 83.264 26.736 81.68 22.056H90.128Z" fill="#EC502B"/>
<path d="M111.176 22.344V23.952H108.608V22.344H111.176ZM108.608 27.816V26.16H111.176V27.816H108.608ZM103.472 27.816V26.16H105.872V27.816H103.472ZM105.872 22.344V23.952H103.472V22.344H105.872ZM114.632 18.264V15.672H113.36L114.224 14.832C113.504 14.112 112.088 13.176 110.888 12.6L109.304 14.112C110.072 14.52 110.96 15.096 111.656 15.672H108.608V12.672H105.872V15.672H100.28V18.264H105.872V19.944H100.808V22.512L99.248 21.384C98.984 21.984 98.48 22.824 98.072 23.496L97.592 22.944V22.848C98.504 21.144 99.32 19.32 99.896 17.52L98.408 16.632L97.952 16.728H96.416L98.336 15.744C97.952 14.928 97.112 13.728 96.368 12.816L94.088 13.848C94.712 14.712 95.456 15.888 95.84 16.728H92.72V19.2H96.704C95.552 21.984 93.728 24.864 91.88 26.592C92.312 27 93.032 28.32 93.296 28.968C93.848 28.392 94.448 27.672 95.024 26.904V34.968H97.592V26.208C98.12 27.024 98.6 27.84 98.912 28.416L100.424 26.52C100.208 26.256 99.704 25.56 99.128 24.864C99.632 24.264 100.184 23.52 100.808 22.824V35.064H103.472V30.024H105.872V34.896H108.608V30.024H111.176V32.232C111.176 32.472 111.104 32.544 110.864 32.544C110.624 32.568 109.952 32.568 109.328 32.544C109.64 33.216 109.952 34.296 110.048 35.016C111.344 35.016 112.256 34.968 112.952 34.56C113.696 34.104 113.888 33.432 113.888 32.28V19.944H108.608V18.264H114.632Z" fill="#EC502B"/>
<path d="M126.152 17.064H122.744V12.696H120.104V17.064H116.744V30.168H118.904V19.584H120.104V35.088H122.744V19.584H124.016V27.456C124.016 27.648 123.968 27.696 123.8 27.696H122.84C123.152 28.368 123.416 29.472 123.44 30.168C124.352 30.168 124.976 30.12 125.528 29.664C126.056 29.232 126.152 28.488 126.152 27.528V17.064ZM134.96 31.104H129.896V25.416H134.96V31.104ZM138.632 19.272V16.632H133.28V12.72H130.52V22.824H127.304V34.944H129.896V33.696H134.96V34.92H137.672V22.824H133.28V19.272H138.632Z" fill="#EC502B"/>
<path d="M33.056 24.72H35.744V26.184H33.056V24.72ZM42.296 26.184H38.408V24.72H41.36V22.632H38.408V21.36H35.744V22.632H33.056V21.36H30.464V22.632H27.56V24.72H30.464V26.184H26.72V28.272H30.992C29.96 28.992 28.424 29.64 26.936 30.096C27.56 30.48 28.568 31.344 29.072 31.824C30.656 31.152 32.6 30.024 33.8 28.92L31.952 28.272H36.656L35.24 29.208C36.704 29.928 38.24 30.984 39.104 31.704L41.648 30.528C40.712 29.856 39.176 28.992 37.736 28.272H42.296V26.184ZM39.368 15.24V16.32H37.16V15.24H39.368ZM40.304 21.024C40.952 21.024 41.672 20.976 42.056 20.856C41.984 20.328 41.912 19.536 41.864 18.936C41.48 19.056 40.688 19.08 40.232 19.08H37.76C37.256 19.08 37.16 18.84 37.16 18.192V18.048H41.768V13.488H34.928V18.144C34.928 20.208 35.432 21.024 37.616 21.024H40.304ZM31.736 15.216V16.296H29.552V15.216H31.736ZM29.552 19.176V18.024H34.112V13.464H27.344V18.048C27.344 19.008 26.936 19.416 26.552 19.608C26.912 20.112 27.368 21.144 27.488 21.72C27.944 21.48 28.736 21.312 33.512 20.568C33.56 20.064 33.752 19.152 33.968 18.576L29.552 19.176ZM25.76 16.776C25.4 15.696 24.776 14.04 24.32 12.744L21.728 13.44C22.16 14.76 22.784 16.512 23.096 17.616L25.76 16.776ZM25.064 23.472L24.656 23.544H24.392C24.944 21.864 25.52 19.944 26 18.264H20.456V20.808H22.544C21.992 22.68 21.392 24.6 20.864 26.016H23.768C23.36 27.72 22.664 29.448 21.728 30.72C21.176 31.176 20.576 31.776 20 32.472L21.896 35.184C22.496 33.816 23.36 32.184 23.888 32.184C24.392 32.184 25.256 32.976 26.24 33.528C27.992 34.536 30.008 34.8 33.176 34.8C35.984 34.8 40.232 34.632 42.2 34.512C42.248 33.744 42.704 32.352 43.016 31.584C40.352 31.968 36.08 32.208 33.32 32.208C30.536 32.208 28.28 32.064 26.624 31.08C25.904 30.648 25.4 30.264 24.968 30C25.808 28.272 26.36 26.208 26.696 24.144L25.064 23.472Z" fill="#2584A3"/>
<path d="M48.632 28.008C48.68 27.456 48.704 26.952 48.704 26.448H52.64V28.008H48.632ZM52.64 22.68V24.336H48.704V22.68H52.64ZM55.4 20.448H46.136V25.944C46.136 28.296 45.992 31.32 44.504 33.48C45.08 33.768 46.208 34.632 46.64 35.088C47.6 33.72 48.152 31.92 48.416 30.096H52.64V32.232C52.64 32.52 52.544 32.616 52.256 32.616C51.944 32.64 50.984 32.64 50.096 32.592C50.456 33.24 50.864 34.296 51.008 35.016C52.472 35.016 53.576 34.968 54.344 34.56C55.16 34.152 55.4 33.48 55.4 32.256V20.448ZM62.24 31.896C62.24 32.232 62.12 32.328 61.736 32.328C61.328 32.352 60.08 32.352 58.856 32.304C59.288 33.048 59.744 34.224 59.888 34.992C61.616 35.016 62.912 34.944 63.824 34.512C64.784 34.056 65.048 33.36 65.048 31.944V20.016H62.24V31.896ZM60.08 20.688H57.464V30.48H60.08V20.688ZM61.448 16.224C62.048 15.384 62.696 14.448 63.272 13.512L60.176 12.6C59.696 13.704 58.928 15.12 58.208 16.224H51.536L52.856 15.768C52.448 14.856 51.488 13.56 50.624 12.648L47.912 13.584C48.584 14.376 49.28 15.408 49.712 16.224H44.6V18.792H66.32V16.224H61.448Z" fill="#2584A3"/>
<path fill-rule="evenodd" clip-rule="evenodd" d="M156.972 32.8756V32.8706V32.8521V32.8336V32.815V32.7964V32.7777V32.759V32.7403V32.7215V32.7027V32.6839V32.665V32.646V32.6271V32.6081V32.5891V32.57V32.5509V32.5317V32.5126V32.4934V32.4741V32.4548V32.4355V32.4162V32.3968V32.3774V32.3579V32.3384V32.3189V32.2993V32.2797V32.2601V32.2404V32.2207V32.201V32.1813V32.1615V32.1416V32.1218V32.1019V32.0819V32.062V32.042V32.022V32.0019V31.9818V31.9617V31.9416V31.9214V31.9012V31.8809V31.8607V31.8404V31.82V31.7997V31.7793V31.7588V31.7384V31.7179V31.6974V31.6768V31.6563V31.6357V31.615V31.5944V31.5737V31.553V31.5322V31.5114V31.4906V31.4698V31.4489V31.428V31.4071V31.3862V31.3652V31.3442V31.3232V31.3021V31.2811V31.26V31.2388V31.2177V31.1965V31.1753V31.154V31.1328V31.1115V31.0902V31.0689V31.0475V31.0261V31.0047V30.9833V30.9618V30.9403V30.9188V30.8973V30.8757V30.8541V30.8325V30.8109V30.7892V30.7676V30.7459V30.7242V30.7024V30.6806V30.6589V30.6371V30.6152V30.5934V30.5715V30.5496V30.5277V30.5057V30.4838V30.4618V30.4398V30.4178V30.3957V30.3736V30.3516V30.3295V30.3073V30.2852V30.263V30.2408V30.2186V30.1964V30.1742V30.1519V30.1296V30.1073V30.085V30.0627V30.0403V30.0179V29.9956V29.9731V29.9507V29.9283V29.9058V29.8833V29.8608V29.8383V29.8158V29.7933V29.7707V29.7481V29.7255V29.7029V29.6803V29.6577V29.635V29.6123V29.5896V29.5669V29.5442V29.5215V29.4987V29.476V29.4532V29.4304V29.4076V29.3848V29.362V29.3391V29.3163V29.2934V29.2705V29.2476V29.2247V29.2018V29.1788V29.1559V29.1329V29.11V29.087V29.064V29.041V29.0179V28.9949V28.9719V28.9488V28.9258V28.9027V28.8796V28.8565V28.8334V28.8103V28.7871V28.764V28.7409V28.7177V28.6945V28.6714V28.6482V28.625V28.6018V28.5786V28.5554V28.5321V28.5089V28.4856V28.4624V28.4391V28.4159V28.3926V28.3693V28.346V28.3227V28.2994V28.2761V28.2528V28.2295V28.2062V28.1828V28.1595V28.1361V28.1128V28.0894V28.0661V28.0427V28.0193V27.9959V27.9725V27.9492V27.9258V27.9024V27.879V27.8556V27.8322V27.8087V27.7853V27.7619V27.7385V27.7151V27.6916V27.6682V27.6448V27.6213V27.5979V27.5744V27.551V27.5275V27.5041V27.4806V27.4572V27.4337V27.4103V27.3868V27.3634V27.3399V27.3165V27.293V27.2695V27.2461V27.2226V27.1992V27.1757V27.1522V27.1288V27.1053V27.0819V27.0584V27.035V27.0115V26.9881V26.9646V26.9412V26.9177V26.8943V26.8708V26.8474V26.824V26.8005V26.7771V26.7537V26.7302V26.7068V26.6834V26.66V26.6366V26.6132V26.5898V26.5664V26.543V26.5196V26.4962V26.4728V26.4494V26.426V26.4027V26.3793V26.356V26.3326V26.3093V26.2859V26.2626V26.2393V26.216V26.1926V26.1693V26.146V26.1227V26.0995V26.0762V26.0529V26.0296V26.0064V25.9831V25.9599V25.9367V25.9134V25.8902V25.867V25.8438V25.8206V25.7974V25.7743V25.7511V25.728V25.7048V25.6817V25.6586V25.6355V25.6124V25.5893V25.5662V25.5431V25.52V25.497V25.474V25.4509V25.4279V25.4049V25.3819V25.3589V25.336V25.313V25.2901V25.2671V25.2442V25.2213V25.1984V25.1756V25.1527V25.1298V25.107V25.0842V25.0614V25.0386V25.0158V24.993V24.9703V24.9475V24.9248V24.9021V24.8794V24.8567V24.834V24.8114V24.7887V24.7661V24.7435V24.7209V24.6984V24.6758V24.6533V24.6308V24.6082V24.5858V24.5633V24.5408V24.5184V24.496V24.4736V24.4512V24.4288V24.4065V24.3842V24.3619V24.3396V24.3173V24.295V24.2728V24.2506V24.2284V24.2062V24.1841V24.1619V24.1398V24.1177V24.0956V24.0736V24.0515V24.0295V24.0075V23.9856V23.9636V23.9417V23.9198V23.8979V23.876V23.8542V23.8323V23.8105V23.7888V23.767V23.7453V23.7236V23.7019V23.6802V23.6586V23.6369V23.6153V23.5938V23.5722V23.5507V23.5292V23.5077V23.4863V23.4649V23.4435V23.4221V23.4007V23.3794V23.3581V23.3368V23.3156V23.2944V23.2732V23.252V23.2308V23.2097V23.1886V23.1676V23.1465V23.1255V23.1045V23.0836V23.0626V23.0417V23.0208V23V22.9701V22.9402V22.9103V22.8805V22.8507V22.8209V22.7912V22.7615V22.7318V22.7022V22.6726V22.643V22.6135V22.584V22.5546V22.5252V22.4958V22.4664V22.4371V22.4078V22.3786V22.3494V22.3202V22.291V22.2619V22.2329V22.2038V22.1748V22.1459V22.117V22.0881V22.0592V22.0304V22.0016V21.9729V21.9442V21.9155V21.8868V21.8582V21.8297V21.8012V21.7727V21.7442V21.7158V21.6874V21.6591V21.6308V21.6025V21.5743V21.5461V21.518V21.4898V21.4618V21.4337V21.4057V21.3778V21.3498V21.322V21.2941V21.2663V21.2385V21.2108V21.1831V21.1555V21.1279V21.1003V21.0727V21.0452V21.0178V20.9904V20.963V20.9357V20.9084V20.8811V20.8539V20.8267V20.7996V20.7725V20.7454V20.7184V20.6914V20.6645V20.6376V20.6107V20.5839V20.5571V20.5304V20.5037V20.4771V20.4504V20.4239V20.3973V20.3709V20.3444V20.318V20.2916V20.2653V20.239V20.2128V20.1866V20.1605V20.1344V20.1083V20.0823V20.0563V20.0303V20.0044V19.9786V19.9528V19.927V19.9013V19.8756V19.85V19.8244V19.7988V19.7733V19.7478V19.7224V19.697V19.6717V19.6464V19.6212V19.596V19.5708V19.5457V19.5206V19.4956V19.4706V19.4457V19.4208V19.3959V19.3711V19.3464V19.3217V19.297V19.2724V19.2478V19.2233V19.1988V19.1743V19.1499V19.1256V19.1013V19.077V19.0528V19.0287V19.0045V18.9805V18.9564V18.9325V18.9085V18.8846V18.8608V18.837V18.8133V18.7896V18.7659V18.7423V18.7187V18.6952V18.6718V18.6484V18.625V18.6017V18.5784V18.5552V18.532V18.5089V18.4858V18.4627V18.4398V18.4168V18.3939V18.3711V18.3483V18.3256V18.3029V18.2802V18.2576V18.2351V18.2126V18.1901V18.1677V18.1454V18.1231V18.1008V18.0786V18.0565V18.0344V18.0123V17.9903V17.9684V17.9465V17.9246V17.9028V17.8811V17.8594V17.8377V17.8161V17.7946V17.7731V17.7517V17.7303V17.7089V17.6876V17.6664V17.6452V17.6241V17.603V17.5819V17.561V17.54V17.5191V17.4983V17.4775V17.4568V17.4361V17.4155V17.395V17.3745V17.354V17.3336V17.3132V17.2929V17.2727V17.2525V17.2323V17.2123V17.1922V17.1722V17.1523V17.1324V17.1126V17.0928V17.0731V17.0535V17.0339V17.0143V16.9948V16.9754V16.956V16.9367V16.9174V16.8981V16.879V16.8599V16.8408V16.8218V16.8028V16.7839V16.7651V16.7463V16.7276V16.7089V16.6903V16.6717V16.6532V16.6348V16.6164V16.5981V16.5798V16.5615V16.5434V16.5253V16.5072V16.4892V16.4713V16.4534V16.4355V16.4178V16.4V16.3824V16.3648V16.3472V16.3298V16.3123V16.295V16.2776V16.2604V16.2432V16.226V16.209V16.1919V16.175V16.1581V16.1412V16.1244V16.1077V16.091V16.0744V16.0578V16.0413V16.0249V16.0085V15.9922V15.9759V15.9597V15.9436V15.9275V15.9115V15.8955V15.8796V15.8638V15.848V15.8322V15.8166V15.801V15.7854V15.7699V15.7545V15.7392V15.7239V15.7086V15.6934V15.6783V15.6633V15.6483V15.6333V15.6184V15.6036V15.5889V15.5742V15.5596V15.545V15.5305V15.516V15.5016V15.4873V15.4731V15.4589V15.4447V15.4307V15.4167V15.4027V15.3888V15.375V15.3612V15.3475V15.3339V15.3203V15.3068V15.2934V15.28V15.2667V15.2534V15.2402V15.2271V15.2141V15.2011V15.1881V15.1752V15.1624V15.1497V15.137V15.1244C152.715 15.8386 149.472 19.5405 149.472 24C149.472 28.4595 152.715 32.1614 156.972 32.8756ZM164.73 30.4686C163.45 31.7063 161.805 32.568 159.972 32.8756V32.8706V32.8521V32.8336V32.815V32.7964V32.7777V32.759V32.7403V32.7215V32.7027V32.6839V32.665V32.646V32.6271V32.6081V32.5891V32.57V32.5509V32.5317V32.5126V32.4934V32.4741V32.4548V32.4355V32.4162V32.3968V32.3774V32.3579V32.3384V32.3189V32.2993V32.2797V32.2601V32.2404V32.2207V32.201V32.1813V32.1615V32.1416V32.1218V32.1019V32.0819V32.062V32.042V32.022V32.0019V31.9818V31.9617V31.9416V31.9214V31.9012V31.8809V31.8607V31.8404V31.82V31.7997V31.7793V31.7588V31.7384V31.7179V31.6974V31.6768V31.6563V31.6357V31.615V31.5944V31.5737V31.553V31.5322V31.5114V31.4906V31.4698V31.4489V31.428V31.4071V31.3862V31.3652V31.3442V31.3232V31.3021V31.2811V31.26V31.2388V31.2177V31.1965V31.1753V31.154V31.1328V31.1115V31.0902V31.0689V31.0475V31.0261V31.0047V30.9833V30.9618V30.9403V30.9188V30.8973V30.8757V30.8541V30.8325V30.8109V30.7892V30.7676V30.7459V30.7242V30.7024V30.6806V30.6589V30.6371V30.6152V30.5934V30.5715V30.5496V30.5277V30.5057V30.4838V30.4618V30.4398V30.4178V30.3957V30.3736V30.3516V30.3295V30.3073V30.2852V30.263V30.2408V30.2186V30.1964V30.1742V30.1519V30.1296V30.1073V30.085V30.0627V30.0403V30.0179V29.9956V29.9731V29.9507V29.9283V29.9058V29.8833V29.8608V29.8383V29.8158V29.7933V29.7707V29.7481V29.7255V29.7029V29.6803V29.6577V29.635V29.6123V29.5896V29.5669V29.5442V29.5215V29.4987V29.476V29.4532V29.4304V29.4076V29.3848V29.362V29.3391V29.3163V29.2934V29.2705V29.2476V29.2247V29.2018V29.1788V29.1559V29.1329V29.11V29.087V29.064V29.041V29.0179V28.9949V28.9719V28.9488V28.9258V28.9027V28.8796V28.8565V28.8334V28.8103V28.7871V28.764V28.7409V28.7177V28.6945V28.6714V28.6482V28.625V28.6018V28.5786V28.5554V28.5321V28.5089V28.4856V28.4624V28.4391V28.4159V28.3926V28.3693V28.346V28.3227V28.2994V28.2761V28.2528V28.2295V28.2062V28.1828V28.1595V28.1361V28.1128V28.0894V28.0661V28.0427V28.0193V27.9959V27.9725V27.9492V27.9258V27.9024V27.879V27.8556V27.8322V27.8087V27.7853V27.7619V27.7385V27.7151V27.6916V27.6682V27.6448V27.6213V27.5979V27.5744V27.551V27.5275V27.5041V27.4806V27.4572V27.4337V27.4103V27.3868V27.3634V27.3399V27.3165V27.293V27.2695V27.2461V27.2226V27.1992V27.1757V27.1522V27.1288V27.1053V27.0819V27.0584V27.035V27.0115V26.9881V26.9646V26.9412V26.9177V26.8943V26.8708V26.8474V26.824V26.8005V26.7771V26.7537V26.7302V26.7068V26.6834V26.66V26.6366V26.6132V26.5898V26.5664V26.543V26.5196V26.4962V26.4728V26.4494V26.426V26.4027V26.3793V26.356V26.3326V26.3093V26.3057L164.73 30.4686ZM166.515 28.044L159.972 22.3193V22.291V22.2619V22.2329V22.2038V22.1748V22.1459V22.117V22.0881V22.0592V22.0304V22.0016V21.9729V21.9442V21.9155V21.8868V21.8582V21.8297V21.8012V21.7727V21.7442V21.7158V21.6874V21.6591V21.6308V21.6025V21.5743V21.5461V21.518V21.4898V21.4618V21.4337V21.4057V21.3778V21.3498V21.322V21.2941V21.2663V21.2385V21.2108V21.1831V21.1555V21.1279V21.1003V21.0727V21.0452V21.0178V20.9904V20.963V20.9357V20.9084V20.8811V20.8539V20.8267V20.7996V20.7725V20.7454V20.7184V20.6914V20.6645V20.6376V20.6107V20.5839V20.5571V20.5304V20.5037V20.4771V20.4504V20.4239V20.3973V20.3709V20.3444V20.318V20.2916V20.2653V20.239V20.2128V20.1866V20.1605V20.1344V20.1083V20.0823V20.0563V20.0303V20.0044V19.9786V19.9528V19.927V19.9013V19.8756V19.85V19.8244V19.7988V19.7733V19.7478V19.7224V19.697V19.6717V19.6464V19.6212V19.596V19.5708V19.5457V19.5206V19.4956V19.4706V19.4457V19.4208V19.3959V19.3711V19.3464V19.3217V19.297V19.2724V19.2478V19.2233V19.1988V19.1743V19.1499V19.1256V19.1013V19.077V19.0528V19.0287V19.0045V18.9805V18.9564V18.9325V18.9085V18.8846V18.8608V18.837V18.8133V18.7896V18.7659V18.7423V18.7187V18.6952V18.6718V18.6484V18.625V18.6017V18.5784V18.5552V18.532V18.5089V18.4858V18.4627V18.4398V18.4168V18.3939V18.3711V18.3483V18.3256V18.3029V18.2802V18.2576V18.2351V18.2126V18.1901V18.1677V18.1454V18.1231V18.1008V18.0786V18.0565V18.0344V18.0123V17.9903V17.9684V17.9465V17.9246V17.9028V17.8811V17.8594V17.8377V17.8161V17.7946V17.7731V17.7517V17.7303V17.7089V17.6876V17.6664V17.6452V17.6241V17.603V17.5819V17.561V17.54V17.5191V17.4983V17.4775V17.4568V17.4361V17.4155V17.395V17.3745V17.354V17.3336V17.3132V17.2929V17.2727V17.2525V17.2323V17.2123V17.1922V17.1722V17.1523V17.1324V17.1126V17.0928V17.0731V17.0535V17.0339V17.0143V16.9948V16.9754V16.956V16.9367V16.9174V16.8981V16.879V16.8599V16.8408V16.8218V16.8028V16.7839V16.7651V16.7463V16.7276V16.7089V16.6903V16.6717V16.6532V16.6348V16.6164V16.5981V16.5798V16.5615V16.5434V16.5253V16.5072V16.4892V16.4713V16.4534V16.4355V16.4178V16.4V16.3824V16.3648V16.3472V16.3298V16.3123V16.295V16.2776V16.2604V16.2432V16.226V16.209V16.1919V16.175V16.1581V16.1412V16.1244V16.1077V16.091V16.0744V16.0578V16.0413V16.0249V16.0085V15.9922V15.9759V15.9597V15.9436V15.9275V15.9115V15.8955V15.8796V15.8638V15.848V15.8322V15.8166V15.801V15.7854V15.7699V15.7545V15.7392V15.7239V15.7086V15.6934V15.6783V15.6633V15.6483V15.6333V15.6184V15.6036V15.5889V15.5742V15.5596V15.545V15.5305V15.516V15.5016V15.4873V15.4731V15.4589V15.4447V15.4307V15.4167V15.4027V15.3888V15.375V15.3612V15.3475V15.3339V15.3203V15.3068V15.2934V15.28V15.2667V15.2534V15.2402V15.2271V15.2141V15.2011V15.1881V15.1752V15.1624V15.1497V15.137V15.1244C164.229 15.8386 167.472 19.5405 167.472 24C167.472 25.4544 167.127 26.8281 166.515 28.044ZM170.472 24C170.472 30.6274 165.099 36 158.472 36C151.845 36 146.472 30.6274 146.472 24C146.472 17.3726 151.845 12 158.472 12C165.099 12 170.472 17.3726 170.472 24Z" fill="#EC502B"/>
</svg>
